<svg width="32" height="32" viewBox="0 0 32 32" fill="none" xmlns="http://www.w3.org/2000/svg">
<path d="M16.0352 32H15.9648C7.16189 32 0 24.8381 0 16.0352V15.9648C0 7.16189 7.16189 0 15.9648 0H16.0352C24.8381 0 32 7.16189 32 15.9648V16.0352C32 24.8381 24.8381 32 16.0352 32ZM15.9648 1.08317C7.75871 1.08317 1.08317 7.75871 1.08317 15.9648V16.0352C1.08317 24.2413 7.75871 30.9168 15.9648 30.9168H16.0352C24.2413 30.9168 30.9168 24.2413 30.9168 16.0352V15.9648C30.9168 7.75871 24.2413 1.08317 16.0352 1.08317H15.9648Z" fill="#D4CFBE"/>
<path d="M6.39709 15.4717C6.44042 15.45 6.48377 15.4295 6.52601 15.41C7.2604 15.0698 8.00454 14.7514 8.74759 14.4329C8.78767 14.4329 8.8548 14.3864 8.89272 14.3712C8.95012 14.3463 9.00754 14.3225 9.06495 14.2975C9.17543 14.2499 9.28592 14.2033 9.39532 14.1556C9.61629 14.0614 9.83615 13.9672 10.0571 13.873C10.498 13.6845 10.9388 13.496 11.3797 13.3065C12.2614 12.9295 13.1442 12.5515 14.0259 12.1745C14.9076 11.7976 15.7903 11.4196 16.672 11.0426C17.5537 10.6657 18.4365 10.2877 19.3182 9.91072C20.1999 9.53377 21.0827 9.15575 21.9644 8.77881C22.1604 8.69433 22.3727 8.56867 22.5829 8.53185C22.7594 8.50044 22.9316 8.43979 23.1093 8.40621C23.4461 8.3423 23.8177 8.3163 24.1405 8.45603C24.252 8.50477 24.3549 8.573 24.4405 8.65857C24.8499 9.06367 24.7925 9.72875 24.7059 10.2985C24.1025 14.2694 23.4992 18.2414 22.8948 22.2123C22.8125 22.7571 22.6998 23.355 22.2698 23.6994C21.9059 23.9908 21.3881 24.0233 20.9386 23.8998C20.4891 23.7752 20.0927 23.5142 19.7038 23.2575C18.091 22.1895 16.4771 21.1215 14.8642 20.0535C14.4808 19.8 14.054 19.4686 14.0584 19.0082C14.0605 18.7309 14.2262 18.484 14.3952 18.2641C15.7968 16.4357 17.8191 15.1792 19.3236 13.4353C19.5359 13.1895 19.7027 12.7454 19.4114 12.6035C19.2381 12.519 19.0387 12.6338 18.8806 12.7432C16.8919 14.1242 14.9043 15.5063 12.9156 16.8874C12.2668 17.338 11.5866 17.8016 10.8045 17.9121C10.1048 18.0117 9.40074 17.8167 8.72376 17.6174C8.15618 17.4506 7.58967 17.2795 7.02534 17.1029C6.7253 17.0098 6.41551 16.9091 6.18371 16.6978C5.95192 16.4866 5.8187 16.1314 5.95843 15.8497C6.04617 15.6732 6.21623 15.5616 6.39495 15.4706L6.39709 15.4717Z" fill="#383D38"/>
</svg>
