<svg width="87" height="36" viewBox="0 0 87 36" fill="none" xmlns="http://www.w3.org/2000/svg">
<g filter="url(#filter0_iiii_361_1623)">
<rect width="86.1391" height="35.1043" transform="translate(0.552124 0.551758)" fill="#B8C0C1"/>
<path d="M23.5336 22.7184L20.7272 25.8849C20.6667 25.9544 20.5932 26.0098 20.5114 26.0474C20.4296 26.085 20.3412 26.1041 20.252 26.1035H6.94871C6.8853 26.1031 6.82333 26.0835 6.77017 26.0468C6.71701 26.0102 6.67492 25.9581 6.64891 25.8968C6.62339 25.8357 6.61559 25.7679 6.6265 25.702C6.63764 25.6359 6.66642 25.5745 6.70943 25.5251L9.51243 22.3585C9.57287 22.2889 9.64637 22.2335 9.72821 22.1959C9.81005 22.1583 9.89842 22.1392 9.98763 22.1399H23.2909C23.3547 22.1381 23.4175 22.1564 23.4715 22.1925C23.5254 22.2286 23.568 22.2808 23.5938 22.3426C23.6196 22.4045 23.6275 22.473 23.6165 22.5396C23.6055 22.6062 23.576 22.6678 23.5319 22.7166L23.5336 22.7184ZM20.7267 16.34C20.6652 16.2719 20.5915 16.2175 20.5099 16.1799C20.4283 16.1424 20.3404 16.1225 20.2515 16.1215H6.94871C6.88524 16.1219 6.82322 16.1416 6.77006 16.1784C6.7169 16.2151 6.67484 16.2673 6.64891 16.3287C6.62343 16.3899 6.61562 16.4577 6.6265 16.5235C6.63771 16.59 6.66629 16.65 6.70943 16.6999L9.51243 19.8683C9.57239 19.9366 9.64692 19.9918 9.72761 20.0286C9.80999 20.0667 9.89741 20.0851 9.98763 20.0868H23.2909C23.354 20.087 23.4158 20.0675 23.4685 20.0307C23.5212 19.994 23.5625 19.9416 23.5874 19.8802C23.6129 19.8191 23.6208 19.7513 23.6101 19.6854C23.5993 19.6196 23.5703 19.5586 23.5268 19.5102L20.725 16.3418L20.7267 16.34ZM6.94815 14.0654H20.2515C20.3408 14.0649 20.4292 14.0456 20.5115 14.0084C20.5938 13.9704 20.6667 13.917 20.7267 13.8469L23.5341 10.6803C23.5665 10.6436 23.5909 10.5999 23.6057 10.5521C23.6204 10.5043 23.6251 10.4537 23.6193 10.4039C23.6136 10.354 23.5977 10.306 23.5726 10.2634C23.5475 10.2208 23.5139 10.1845 23.4742 10.1571C23.4202 10.1205 23.3572 10.1019 23.2932 10.1036H9.98763C9.89909 10.1036 9.80999 10.1238 9.72761 10.1601C9.6459 10.1974 9.57257 10.2527 9.51243 10.3222L6.70943 13.4888C6.66655 13.5378 6.63801 13.599 6.62727 13.6649C6.61653 13.7307 6.62405 13.7985 6.64891 13.86C6.67488 13.9212 6.71689 13.9732 6.76993 14.0098C6.82298 14.0464 6.88484 14.0662 6.94815 14.0666V14.0654Z" fill="black"/>
<path d="M32.8294 23.2704C31.8613 23.2704 31.049 23.1258 30.3925 22.8365C29.7359 22.536 29.2296 22.1521 28.8735 21.6848C28.5286 21.2063 28.345 20.7 28.3227 20.1659C28.3227 20.0768 28.3561 19.9989 28.4229 19.9322C28.5008 19.8543 28.5898 19.8153 28.6899 19.8153H29.5412C29.6747 19.8153 29.7749 19.8487 29.8416 19.9155C29.9084 19.9823 29.9529 20.0601 29.9752 20.1492C30.0308 20.4162 30.1643 20.6833 30.3758 20.9503C30.5983 21.2063 30.9043 21.4233 31.2938 21.6013C31.6944 21.7682 32.2062 21.8517 32.8294 21.8517C33.7863 21.8517 34.4874 21.6848 34.9325 21.3509C35.3887 21.006 35.6168 20.5498 35.6168 19.9823C35.6168 19.5928 35.4944 19.2812 35.2496 19.0475C35.0159 18.8027 34.6543 18.5857 34.1647 18.3966C33.6751 18.2074 33.0408 18.0016 32.2619 17.779C31.4496 17.5453 30.7764 17.2894 30.2422 17.0112C29.7081 16.733 29.3075 16.3881 29.0405 15.9763C28.7845 15.5646 28.6566 15.0416 28.6566 14.4074C28.6566 13.8065 28.8179 13.2724 29.1406 12.805C29.4633 12.3265 29.9251 11.9482 30.526 11.67C31.138 11.3918 31.878 11.2527 32.7459 11.2527C33.4358 11.2527 34.0367 11.3473 34.5486 11.5365C35.0716 11.7145 35.5055 11.9593 35.8505 12.2709C36.1954 12.5713 36.4569 12.8996 36.635 13.2557C36.813 13.6006 36.9076 13.94 36.9187 14.2738C36.9187 14.3517 36.8909 14.4296 36.8353 14.5075C36.7796 14.5743 36.6906 14.6077 36.5682 14.6077H35.6836C35.6057 14.6077 35.5222 14.5854 35.4332 14.5409C35.3553 14.4964 35.2941 14.4129 35.2496 14.2905C35.1828 13.8343 34.9269 13.4504 34.4818 13.1388C34.0367 12.8273 33.4581 12.6715 32.7459 12.6715C32.0226 12.6715 31.4329 12.8106 30.9766 13.0888C30.5315 13.3669 30.309 13.8009 30.309 14.3907C30.309 14.769 30.4147 15.0861 30.6261 15.3421C30.8376 15.5869 31.1714 15.8039 31.6276 15.993C32.0838 16.1822 32.6792 16.3825 33.4136 16.5939C34.3038 16.8387 35.0326 17.1002 35.6001 17.3784C36.1676 17.6455 36.5849 17.9849 36.852 18.3966C37.1302 18.7972 37.2692 19.3146 37.2692 19.9489C37.2692 20.6499 37.0856 21.2508 36.7184 21.7515C36.3512 22.2411 35.8338 22.6195 35.1662 22.8865C34.5096 23.1425 33.7307 23.2704 32.8294 23.2704ZM42.7952 23.2704C41.9495 23.2704 41.2429 23.1091 40.6754 22.7864C40.1079 22.4637 39.674 22.0186 39.3735 21.4511C39.0731 20.8725 38.9062 20.2159 38.8728 19.4815C38.8617 19.2923 38.8561 19.0531 38.8561 18.7638C38.8561 18.4633 38.8617 18.2241 38.8728 18.0461C38.9062 17.3005 39.0731 16.644 39.3735 16.0765C39.6851 15.509 40.1246 15.0639 40.6921 14.7412C41.2596 14.4185 41.9607 14.2571 42.7952 14.2571C43.6298 14.2571 44.3308 14.4185 44.8983 14.7412C45.4658 15.0639 45.8998 15.509 46.2002 16.0765C46.5118 16.644 46.6843 17.3005 46.7177 18.0461C46.7288 18.2241 46.7344 18.4633 46.7344 18.7638C46.7344 19.0531 46.7288 19.2923 46.7177 19.4815C46.6843 20.2159 46.5174 20.8725 46.2169 21.4511C45.9165 22.0186 45.4825 22.4637 44.915 22.7864C44.3475 23.1091 43.6409 23.2704 42.7952 23.2704ZM42.7952 21.9852C43.4851 21.9852 44.0359 21.7682 44.4477 21.3342C44.8594 20.8891 45.0819 20.2437 45.1153 19.3981C45.1264 19.2311 45.132 19.0197 45.132 18.7638C45.132 18.5079 45.1264 18.2964 45.1153 18.1295C45.0819 17.2838 44.8594 16.644 44.4477 16.21C44.0359 15.7649 43.4851 15.5424 42.7952 15.5424C42.1053 15.5424 41.5489 15.7649 41.1261 16.21C40.7144 16.644 40.4974 17.2838 40.4751 18.1295C40.464 18.2964 40.4585 18.5079 40.4585 18.7638C40.4585 19.0197 40.464 19.2311 40.4751 19.3981C40.4974 20.2437 40.7144 20.8891 41.1261 21.3342C41.5489 21.7682 42.1053 21.9852 42.7952 21.9852ZM49.225 23.1035C49.1137 23.1035 49.0192 23.0701 48.9413 23.0034C48.8745 22.9255 48.8411 22.8309 48.8411 22.7196V11.6366C48.8411 11.5253 48.8745 11.4363 48.9413 11.3696C49.0192 11.2917 49.1137 11.2527 49.225 11.2527H50.0095C50.1319 11.2527 50.2265 11.2917 50.2933 11.3696C50.36 11.4363 50.3934 11.5253 50.3934 11.6366V22.7196C50.3934 22.8309 50.36 22.9255 50.2933 23.0034C50.2265 23.0701 50.1319 23.1035 50.0095 23.1035H49.225ZM55.3034 23.2704C54.747 23.2704 54.2407 23.1592 53.7845 22.9366C53.3282 22.7141 52.961 22.4136 52.6828 22.0353C52.4047 21.6569 52.2656 21.2285 52.2656 20.75C52.2656 19.9823 52.5771 19.3702 53.2003 18.914C53.8234 18.4578 54.6357 18.1573 55.6372 18.0127L58.1242 17.6622V17.1781C58.1242 16.644 57.9684 16.2267 57.6568 15.9263C57.3564 15.6258 56.8612 15.4756 56.1713 15.4756C55.6706 15.4756 55.2644 15.5758 54.9529 15.7761C54.6524 15.9763 54.441 16.2323 54.3186 16.5439C54.2518 16.7108 54.135 16.7942 53.9681 16.7942H53.217C53.0946 16.7942 53 16.7608 52.9332 16.6941C52.8776 16.6162 52.8498 16.5272 52.8498 16.427C52.8498 16.2601 52.911 16.0542 53.0334 15.8094C53.1669 15.5646 53.3672 15.3254 53.6342 15.0917C53.9013 14.858 54.2407 14.6633 54.6524 14.5075C55.0753 14.3406 55.5871 14.2571 56.188 14.2571C56.8557 14.2571 57.4176 14.3462 57.8738 14.5242C58.3301 14.6911 58.6861 14.9192 58.9421 15.2086C59.2091 15.4979 59.3983 15.8261 59.5096 16.1933C59.632 16.5605 59.6932 16.9333 59.6932 17.3116V22.7196C59.6932 22.8309 59.6542 22.9255 59.5763 23.0034C59.5096 23.0701 59.4205 23.1035 59.3093 23.1035H58.5415C58.4191 23.1035 58.3245 23.0701 58.2577 23.0034C58.191 22.9255 58.1576 22.8309 58.1576 22.7196V22.0019C58.0129 22.2022 57.8182 22.4025 57.5734 22.6028C57.3286 22.7919 57.0226 22.9533 56.6554 23.0868C56.2882 23.2092 55.8375 23.2704 55.3034 23.2704ZM55.6539 22.0186C56.1101 22.0186 56.5274 21.924 56.9057 21.7348C57.2841 21.5345 57.5789 21.2285 57.7904 20.8168C58.0129 20.4051 58.1242 19.8877 58.1242 19.2645V18.7972L56.188 19.0809C55.398 19.1922 54.8026 19.3814 54.402 19.6484C54.0015 19.9044 53.8012 20.2326 53.8012 20.6332C53.8012 20.9448 53.8902 21.2063 54.0682 21.4177C54.2574 21.618 54.4911 21.7682 54.7692 21.8684C55.0586 21.9685 55.3534 22.0186 55.6539 22.0186ZM62.4766 23.1035C62.3653 23.1035 62.2707 23.0701 62.1928 23.0034C62.126 22.9255 62.0927 22.8309 62.0927 22.7196V14.808C62.0927 14.6967 62.126 14.6077 62.1928 14.5409C62.2707 14.463 62.3653 14.4241 62.4766 14.4241H63.2611C63.3723 14.4241 63.4613 14.463 63.5281 14.5409C63.606 14.6077 63.645 14.6967 63.645 14.808V15.5424C63.9343 15.164 64.2959 14.858 64.7299 14.6244C65.175 14.3796 65.7425 14.2571 66.4324 14.2571C67.1557 14.2571 67.7677 14.4185 68.2684 14.7412C68.7803 15.0528 69.1642 15.4923 69.4201 16.0598C69.6761 16.6162 69.804 17.2671 69.804 18.0127V22.7196C69.804 22.8309 69.7706 22.9255 69.7039 23.0034C69.6371 23.0701 69.5481 23.1035 69.4368 23.1035H68.6023C68.491 23.1035 68.3964 23.0701 68.3185 23.0034C68.2517 22.9255 68.2184 22.8309 68.2184 22.7196V18.0961C68.2184 17.3172 68.0292 16.7108 67.6509 16.2768C67.2725 15.8317 66.7161 15.6091 65.9817 15.6091C65.2918 15.6091 64.7354 15.8317 64.3126 16.2768C63.9009 16.7108 63.695 17.3172 63.695 18.0961V22.7196C63.695 22.8309 63.6561 22.9255 63.5782 23.0034C63.5114 23.0701 63.4224 23.1035 63.3111 23.1035H62.4766ZM74.6352 23.2704C74.0789 23.2704 73.5726 23.1592 73.1163 22.9366C72.6601 22.7141 72.2929 22.4136 72.0147 22.0353C71.7365 21.6569 71.5974 21.2285 71.5974 20.75C71.5974 19.9823 71.909 19.3702 72.5321 18.914C73.1553 18.4578 73.9676 18.1573 74.9691 18.0127L77.4561 17.6622V17.1781C77.4561 16.644 77.3003 16.2267 76.9887 15.9263C76.6883 15.6258 76.1931 15.4756 75.5032 15.4756C75.0024 15.4756 74.5963 15.5758 74.2847 15.7761C73.9843 15.9763 73.7729 16.2323 73.6504 16.5439C73.5837 16.7108 73.4668 16.7942 73.2999 16.7942H72.5488C72.4264 16.7942 72.3318 16.7608 72.2651 16.6941C72.2094 16.6162 72.1816 16.5272 72.1816 16.427C72.1816 16.2601 72.2428 16.0542 72.3652 15.8094C72.4988 15.5646 72.699 15.3254 72.9661 15.0917C73.2332 14.858 73.5726 14.6633 73.9843 14.5075C74.4071 14.3406 74.919 14.2571 75.5199 14.2571C76.1875 14.2571 76.7495 14.3462 77.2057 14.5242C77.6619 14.6911 78.018 14.9192 78.2739 15.2086C78.541 15.4979 78.7302 15.8261 78.8414 16.1933C78.9638 16.5605 79.025 16.9333 79.025 17.3116V22.7196C79.025 22.8309 78.9861 22.9255 78.9082 23.0034C78.8414 23.0701 78.7524 23.1035 78.6411 23.1035H77.8733C77.7509 23.1035 77.6563 23.0701 77.5896 23.0034C77.5228 22.9255 77.4894 22.8309 77.4894 22.7196V22.0019C77.3448 22.2022 77.15 22.4025 76.9052 22.6028C76.6604 22.7919 76.3544 22.9533 75.9872 23.0868C75.62 23.2092 75.1694 23.2704 74.6352 23.2704ZM74.9857 22.0186C75.442 22.0186 75.8593 21.924 76.2376 21.7348C76.6159 21.5345 76.9108 21.2285 77.1222 20.8168C77.3448 20.4051 77.4561 19.8877 77.4561 19.2645V18.7972L75.5199 19.0809C74.7298 19.1922 74.1345 19.3814 73.7339 19.6484C73.3333 19.9044 73.133 20.2326 73.133 20.6332C73.133 20.9448 73.222 21.2063 73.4001 21.4177C73.5892 21.618 73.8229 21.7682 74.1011 21.8684C74.3904 21.9685 74.6853 22.0186 74.9857 22.0186Z" fill="black"/>
</g>
<defs>
<filter id="filter0_iiii_361_1623" x="0.552124" y="0.551758" width="86.139" height="35.1045" filterUnits="userSpaceOnUse" color-interpolation-filters="sRGB">
<feFlood flood-opacity="0" result="BackgroundImageFix"/>
<feBlend mode="normal" in="SourceGraphic" in2="BackgroundImageFix" result="shape"/>
<feColorMatrix in="SourceAlpha" type="matrix" values="0 0 0 0 0 0 0 0 0 0 0 0 0 0 0 0 0 0 127 0" result="hardAlpha"/>
<feOffset dx="3.03477" dy="3.03477"/>
<feComposite in2="hardAlpha" operator="arithmetic" k2="-1" k3="1"/>
<feColorMatrix type="matrix" values="0 0 0 0 1 0 0 0 0 1 0 0 0 0 1 0 0 0 1 0"/>
<feBlend mode="normal" in2="shape" result="effect1_innerShadow_361_1623"/>
<feColorMatrix in="SourceAlpha" type="matrix" values="0 0 0 0 0 0 0 0 0 0 0 0 0 0 0 0 0 0 127 0" result="hardAlpha"/>
<feOffset dx="-3.03477" dy="-3.03477"/>
<feComposite in2="hardAlpha" operator="arithmetic" k2="-1" k3="1"/>
<feColorMatrix type="matrix" values="0 0 0 0 0.501961 0 0 0 0 0.501961 0 0 0 0 0.501961 0 0 0 1 0"/>
<feBlend mode="normal" in2="effect1_innerShadow_361_1623" result="effect2_innerShadow_361_1623"/>
<feColorMatrix in="SourceAlpha" type="matrix" values="0 0 0 0 0 0 0 0 0 0 0 0 0 0 0 0 0 0 127 0" result="hardAlpha"/>
<feOffset dx="1.51739" dy="1.51739"/>
<feComposite in2="hardAlpha" operator="arithmetic" k2="-1" k3="1"/>
<feColorMatrix type="matrix" values="0 0 0 0 0.87451 0 0 0 0 0.87451 0 0 0 0 0.87451 0 0 0 1 0"/>
<feBlend mode="normal" in2="effect2_innerShadow_361_1623" result="effect3_innerShadow_361_1623"/>
<feColorMatrix in="SourceAlpha" type="matrix" values="0 0 0 0 0 0 0 0 0 0 0 0 0 0 0 0 0 0 127 0" result="hardAlpha"/>
<feOffset dx="-1.51739" dy="-1.51739"/>
<feComposite in2="hardAlpha" operator="arithmetic" k2="-1" k3="1"/>
<feColorMatrix type="matrix" values="0 0 0 0 0.0392157 0 0 0 0 0.0392157 0 0 0 0 0.0392157 0 0 0 1 0"/>
<feBlend mode="normal" in2="effect3_innerShadow_361_1623" result="effect4_innerShadow_361_1623"/>
</filter>
</defs>
</svg>
