<svg width="107" height="29" viewBox="0 0 107 29" fill="none" xmlns="http://www.w3.org/2000/svg">
<path d="M29.6611 22.0294C29.0005 22.0819 28.4183 22.0017 27.9145 21.789C27.4193 21.5662 27.0226 21.2278 26.7244 20.774C26.4255 20.3109 26.2401 19.7452 26.1682 19.0768C26.1478 18.9379 26.1284 18.7522 26.1099 18.5196C26.0915 18.287 26.0813 18.1006 26.0795 17.9603C26.0449 17.2889 26.139 16.7056 26.3618 16.2104C26.5839 15.7059 26.9222 15.3092 27.3768 15.0203C27.8399 14.7214 28.4017 14.5456 29.0623 14.4932C29.602 14.4503 30.0684 14.4881 30.4617 14.6067C30.8643 14.7245 31.2004 14.8897 31.4701 15.1024C31.7398 15.315 31.9459 15.5514 32.0882 15.8116C32.2399 16.0711 32.33 16.3214 32.3586 16.5626C32.3753 16.6549 32.3533 16.7315 32.2926 16.7925C32.2319 16.8535 32.155 16.8877 32.062 16.8951L31.3921 16.9484C31.299 16.9557 31.2278 16.9427 31.1783 16.9092C31.1281 16.8663 31.0757 16.7956 31.021 16.697C30.8173 16.2544 30.5639 15.9515 30.2607 15.7883C29.9574 15.6251 29.5919 15.5606 29.1639 15.5946C28.6056 15.6389 28.1634 15.8473 27.8372 16.2196C27.5203 16.5912 27.3782 17.1596 27.4109 17.9247C27.4282 18.2604 27.4541 18.586 27.4885 18.9016C27.5778 19.6717 27.8082 20.2151 28.1798 20.532C28.56 20.8389 29.0292 20.9701 29.5874 20.9258C30.0154 20.8918 30.3662 20.7703 30.6399 20.5613C30.9135 20.3523 31.1159 20.0132 31.2472 19.544C31.2856 19.4379 31.3266 19.3645 31.3701 19.3236C31.413 19.2733 31.4809 19.2445 31.5739 19.2371L32.2438 19.1839C32.3369 19.1765 32.4182 19.1982 32.4877 19.2488C32.5573 19.2995 32.5911 19.3717 32.5892 19.4655C32.5954 19.6616 32.5694 19.8649 32.5113 20.0755C32.4531 20.2861 32.3488 20.5051 32.1983 20.7324C32.0564 20.9496 31.8711 21.1516 31.6425 21.3383C31.4132 21.5157 31.1305 21.6692 30.7944 21.7989C30.4668 21.9186 30.089 21.9954 29.6611 22.0294ZM34.7545 21.4843C34.6615 21.4917 34.5802 21.4701 34.5106 21.4194C34.4496 21.3587 34.4154 21.2819 34.408 21.1888L33.6718 11.922C33.6644 11.829 33.6864 11.7523 33.7378 11.6921C33.7977 11.6218 33.8742 11.5829 33.9673 11.5755L34.6232 11.5234C34.7255 11.5153 34.8072 11.5416 34.8682 11.6023C34.9285 11.6536 34.9623 11.7259 34.9697 11.8189L35.7059 21.0857C35.7133 21.1787 35.6917 21.26 35.641 21.3296C35.5896 21.3899 35.5128 21.4241 35.4104 21.4322L34.7545 21.4843ZM38.1341 21.2158C38.0411 21.2232 37.9598 21.2016 37.8902 21.1509C37.8292 21.0902 37.795 21.0134 37.7876 20.9203L37.2621 14.3052C37.2547 14.2121 37.2767 14.1355 37.3281 14.0752C37.388 14.0049 37.4645 13.9661 37.5576 13.9587L38.2275 13.9054C38.3205 13.8981 38.3975 13.9247 38.4585 13.9854C38.5188 14.0368 38.5526 14.109 38.56 14.202L39.0856 20.8172C39.093 20.9102 39.0713 20.9915 39.0207 21.0611C38.9693 21.1214 38.8971 21.1552 38.804 21.1626L38.1341 21.2158ZM37.3384 12.6138C37.2453 12.6212 37.164 12.5996 37.0945 12.5489C37.0335 12.4882 36.9993 12.4114 36.9919 12.3183L36.932 11.5647C36.9246 11.4717 36.9466 11.395 36.998 11.3347C37.058 11.2644 37.1345 11.2256 37.2275 11.2182L38.1067 11.1483C38.1998 11.141 38.2768 11.1676 38.3378 11.2283C38.4074 11.279 38.4458 11.3508 38.4532 11.4438L38.5131 12.1975C38.5205 12.2905 38.4942 12.3722 38.4343 12.4425C38.3829 12.5027 38.3107 12.5366 38.2176 12.544L37.3384 12.6138ZM44.135 20.8795C43.4744 20.932 42.8922 20.8518 42.3885 20.6391C41.8932 20.4162 41.4965 20.0779 41.1983 19.6241C40.8994 19.161 40.714 18.5953 40.6422 17.9268C40.6218 17.788 40.6023 17.6023 40.5839 17.3697C40.5654 17.1371 40.5552 16.9507 40.5535 16.8104C40.5188 16.139 40.613 15.5557 40.8358 15.0605C41.0578 14.556 41.3962 14.1593 41.8507 13.8704C42.3138 13.5714 42.8757 13.3957 43.5362 13.3432C44.0759 13.3004 44.5423 13.3382 44.9356 13.4568C45.3382 13.5746 45.6744 13.7398 45.9441 13.9525C46.2137 14.1651 46.4198 14.4015 46.5622 14.6617C46.7139 14.9212 46.804 15.1715 46.8325 15.4127C46.8492 15.505 46.8272 15.5816 46.7665 15.6426C46.7058 15.7036 46.6289 15.7378 46.5359 15.7452L45.866 15.7984C45.773 15.8058 45.7017 15.7928 45.6522 15.7592C45.602 15.7164 45.5496 15.6457 45.4949 15.547C45.2912 15.1044 45.0378 14.8016 44.7346 14.6384C44.4314 14.4752 44.0658 14.4107 43.6378 14.4447C43.0796 14.489 42.6373 14.6973 42.3111 15.0697C41.9942 15.4413 41.8521 16.0097 41.8848 16.7748C41.9021 17.1105 41.928 17.4361 41.9624 17.7517C42.0517 18.5217 42.2821 19.0652 42.6537 19.3821C43.0339 19.689 43.5031 19.8202 44.0613 19.7759C44.4893 19.7419 44.8401 19.6204 45.1138 19.4114C45.3874 19.2024 45.5899 18.8633 45.7211 18.3941C45.7595 18.288 45.8005 18.2145 45.844 18.1736C45.8869 18.1234 45.9548 18.0946 46.0478 18.0872L46.7177 18.034C46.8108 18.0266 46.8921 18.0482 46.9616 18.0989C47.0312 18.1495 47.065 18.2218 47.0631 18.3155C47.0693 18.5117 47.0434 18.715 46.9852 18.9256C46.927 19.1362 46.8227 19.3552 46.6722 19.5825C46.5303 19.7997 46.3451 20.0017 46.1165 20.1884C45.8871 20.3658 45.6044 20.5193 45.2683 20.649C44.9407 20.7687 44.563 20.8455 44.135 20.8795ZM49.2284 20.3344C49.1354 20.3418 49.0541 20.3202 48.9845 20.2695C48.9235 20.2088 48.8893 20.1319 48.8819 20.0389L48.1457 10.7721C48.1383 10.6791 48.1603 10.6024 48.2117 10.5422C48.2717 10.4719 48.3481 10.433 48.4412 10.4256L49.0971 10.3735C49.1902 10.3661 49.2672 10.3928 49.3282 10.4535C49.3977 10.5041 49.4362 10.5759 49.4436 10.669L49.8295 15.5257L52.397 13.0185C52.5012 12.9166 52.5802 12.8494 52.6338 12.8171C52.6959 12.7747 52.7968 12.748 52.9364 12.7369L53.676 12.6781C53.7598 12.6714 53.8318 12.6938 53.892 12.7452C53.9523 12.7966 53.9857 12.8642 53.9924 12.9479C53.9953 12.9851 53.9847 13.0281 53.9605 13.0768C53.9456 13.1248 53.9074 13.1747 53.846 13.2264L50.835 16.162L54.6838 19.3532C54.8029 19.4374 54.8654 19.5167 54.8713 19.5912C54.8779 19.6749 54.8556 19.7469 54.8042 19.8071C54.7528 19.8674 54.6852 19.9009 54.6015 19.9075L53.8758 19.9652C53.7362 19.9763 53.6328 19.9704 53.5654 19.9477C53.4973 19.9157 53.4084 19.8572 53.2987 19.7723L49.9503 17.0469L50.1798 19.9358C50.1872 20.0288 50.1609 20.1105 50.101 20.1808C50.0496 20.2411 49.9774 20.2749 49.8843 20.2823L49.2284 20.3344ZM61.9074 19.3271C61.3863 19.3685 60.9552 19.3044 60.6141 19.1349C60.2722 18.9561 60.0124 18.6912 59.8347 18.3401C59.6562 17.9798 59.5471 17.5484 59.5072 17.046L59.2144 13.3616L58.1259 13.4481C58.0328 13.4555 57.9515 13.4339 57.882 13.3832C57.821 13.3225 57.7868 13.2457 57.7794 13.1526L57.7417 12.6781C57.7343 12.5851 57.7563 12.5084 57.8077 12.4482C57.8676 12.3779 57.9441 12.339 58.0372 12.3316L59.1257 12.2451L58.9406 9.91448C58.9332 9.82144 58.9552 9.74479 59.0066 9.68453C59.0665 9.61423 59.143 9.57538 59.2361 9.56799L59.892 9.51587C59.985 9.50848 60.0621 9.53513 60.1231 9.59583C60.1926 9.64648 60.2311 9.71832 60.2385 9.81136L60.4237 12.142L62.1542 12.0045C62.2472 11.9971 62.3243 12.0238 62.3853 12.0845C62.4548 12.1351 62.4933 12.207 62.5007 12.3L62.5384 12.7745C62.5458 12.8676 62.5195 12.9492 62.4595 13.0195C62.4082 13.0798 62.3359 13.1136 62.2429 13.121L60.5124 13.2585L60.7973 16.8452C60.8321 17.2825 60.9338 17.6208 61.1027 17.8602C61.2715 18.0996 61.5466 18.2041 61.9281 18.1738L62.7794 18.1062C62.8724 18.0988 62.9495 18.1254 63.0105 18.1861C63.08 18.2368 63.1185 18.3086 63.1259 18.4017L63.1658 18.9041C63.1732 18.9971 63.1469 19.0788 63.087 19.1491C63.0356 19.2094 62.9634 19.2432 62.8703 19.2506L61.9074 19.3271ZM67.5096 19.0224C66.8025 19.0786 66.2009 18.9906 65.705 18.7585C65.2091 18.5264 64.8166 18.1831 64.5277 17.7285C64.2381 17.2647 64.0549 16.7268 63.9782 16.115C63.9563 15.9576 63.9358 15.7579 63.9166 15.516C63.8966 15.2648 63.8854 15.0644 63.8829 14.9148C63.8613 14.2892 63.9572 13.7292 64.1707 13.2347C64.3935 12.7395 64.7315 12.3381 65.1845 12.0306C65.6376 11.7231 66.213 11.5416 66.9108 11.4862C67.6086 11.4307 68.2055 11.5191 68.7015 11.7512C69.1974 11.9833 69.5898 12.3267 69.8787 12.7812C70.1769 13.235 70.3648 13.7725 70.4422 14.3936C70.4633 14.5418 70.4839 14.7414 70.5038 14.9926C70.523 15.2345 70.5343 15.435 70.5376 15.5939C70.5584 16.2101 70.4625 16.7702 70.2497 17.2739C70.0362 17.7684 69.7029 18.1694 69.2498 18.4769C68.7968 18.7844 68.2167 18.9663 67.5096 19.0224ZM67.4242 17.9478C68.001 17.902 68.4472 17.684 68.7626 17.2938C69.0773 16.8943 69.2205 16.3398 69.1922 15.6305C69.1904 15.4902 69.1811 15.3131 69.1641 15.0991C69.1471 14.8851 69.1284 14.7087 69.108 14.5699C69.0239 13.865 68.7953 13.3448 68.4222 13.0093C68.0484 12.6645 67.5731 12.515 66.9962 12.5608C66.4194 12.6066 65.9689 12.8297 65.645 13.2299C65.3295 13.6201 65.1906 14.1695 65.2282 14.8781C65.23 15.0184 65.2394 15.1955 65.2564 15.4095C65.2734 15.6235 65.2921 15.7999 65.3125 15.9388C65.3872 16.6444 65.6115 17.1696 65.9854 17.5144C66.3677 17.8492 66.8474 17.9937 67.4242 17.9478ZM78.9024 18.1173C78.2418 18.1698 77.6596 18.0896 77.1559 17.8769C76.6607 17.6541 76.2639 17.3158 75.9657 16.8619C75.6668 16.3988 75.4814 15.8331 75.4096 15.1647C75.3892 15.0258 75.3697 14.8401 75.3513 14.6075C75.3328 14.3749 75.3226 14.1885 75.3209 14.0482C75.2863 13.3768 75.3804 12.7935 75.6032 12.2983C75.8252 11.7938 76.1636 11.3971 76.6181 11.1082C77.0812 10.8093 77.6431 10.6335 78.3036 10.5811C78.8433 10.5382 79.3097 10.576 79.703 10.6946C80.1056 10.8124 80.4418 10.9776 80.7115 11.1903C80.9811 11.4029 81.1872 11.6393 81.3296 11.8996C81.4813 12.159 81.5714 12.4093 81.5999 12.6505C81.6166 12.7428 81.5946 12.8195 81.5339 12.8805C81.4732 12.9414 81.3963 12.9756 81.3033 12.983L80.6334 13.0363C80.5404 13.0436 80.4691 13.0306 80.4196 12.9971C80.3694 12.9542 80.317 12.8835 80.2623 12.7849C80.0586 12.3423 79.8052 12.0394 79.502 11.8762C79.1988 11.7131 78.8332 11.6485 78.4052 11.6825C77.847 11.7268 77.4047 11.9352 77.0785 12.3075C76.7616 12.6791 76.6195 13.2475 76.6522 14.0126C76.6695 14.3483 76.6954 14.6739 76.7298 14.9895C76.8191 15.7596 77.0495 16.303 77.4211 16.6199C77.8013 16.9268 78.2705 17.058 78.8287 17.0137C79.2567 16.9797 79.6075 16.8582 79.8812 16.6492C80.1548 16.4402 80.3573 16.1011 80.4885 15.6319C80.5269 15.5258 80.5679 15.4524 80.6115 15.4115C80.6543 15.3612 80.7222 15.3324 80.8152 15.325L81.4851 15.2718C81.5782 15.2644 81.6595 15.2861 81.729 15.3367C81.7986 15.3874 81.8324 15.4596 81.8305 15.5534C81.8367 15.7495 81.8108 15.9528 81.7526 16.1634C81.6944 16.374 81.5901 16.593 81.4396 16.8203C81.2977 17.0375 81.1125 17.2395 80.8839 17.4262C80.6545 17.6036 80.3718 17.7571 80.0357 17.8868C79.7081 18.0065 79.3304 18.0833 78.9024 18.1173ZM86.6446 17.5022C85.9375 17.5584 85.336 17.4704 84.84 17.2383C84.3441 17.0062 83.9517 16.6629 83.6628 16.2083C83.3731 15.7445 83.1899 15.2066 83.1132 14.5948C83.0914 14.4373 83.0708 14.2377 83.0516 13.9958C83.0316 13.7445 83.0204 13.5441 83.0179 13.3945C82.9963 12.769 83.0922 12.2089 83.3057 11.7145C83.5285 11.2193 83.8665 10.8179 84.3196 10.5104C84.7726 10.2029 85.3481 10.0214 86.0459 9.96596C86.7437 9.91052 87.3405 9.99886 87.8365 10.231C88.3324 10.4631 88.7248 10.8064 89.0137 11.261C89.312 11.7148 89.4998 12.2523 89.5772 12.8734C89.5983 13.0215 89.6189 13.2212 89.6388 13.4724C89.6581 13.7143 89.6693 13.9147 89.6726 14.0736C89.6934 14.6899 89.5975 15.2499 89.3847 15.7537C89.1712 16.2482 88.8379 16.6492 88.3849 16.9567C87.9318 17.2642 87.3517 17.446 86.6446 17.5022ZM86.5592 16.4276C87.1361 16.3818 87.5822 16.1638 87.8976 15.7735C88.2123 15.374 88.3555 14.8196 88.3272 14.1103C88.3255 13.97 88.3161 13.7928 88.2991 13.5789C88.2821 13.3649 88.2634 13.1885 88.243 13.0496C88.1589 12.3447 87.9303 11.8246 87.5572 11.489C87.1834 11.1442 86.7081 10.9947 86.1312 11.0406C85.5544 11.0864 85.104 11.3094 84.78 11.7097C84.4646 12.0999 84.3256 12.6493 84.3632 13.3579C84.365 13.4982 84.3744 13.6753 84.3914 13.8893C84.4084 14.1033 84.4271 14.2797 84.4475 14.4185C84.5223 15.1242 84.7466 15.6494 85.1204 15.9942C85.5028 16.329 85.9824 16.4734 86.5592 16.4276ZM92.2203 19.5872C92.1273 19.5946 92.0456 19.5683 91.9753 19.5083C91.915 19.4569 91.8812 19.3847 91.8738 19.2917L91.1376 10.0249C91.1302 9.93185 91.1522 9.8552 91.2036 9.79494C91.2635 9.72464 91.34 9.68579 91.4331 9.6784L92.075 9.6274C92.1681 9.62 92.2451 9.64665 92.3061 9.70735C92.3757 9.758 92.4141 9.82984 92.4215 9.92288L92.4703 10.5369C92.6692 10.2122 92.9466 9.93266 93.3025 9.69841C93.6584 9.46415 94.1155 9.32485 94.6737 9.2805C95.1948 9.2391 95.6437 9.29238 96.0206 9.44033C96.4068 9.58754 96.7284 9.80542 96.9854 10.094C97.2517 10.3818 97.4609 10.7163 97.6129 11.0974C97.7649 11.4786 97.8633 11.8921 97.908 12.3379C97.9292 12.4861 97.9464 12.6439 97.9597 12.8113C97.973 12.9788 97.9809 13.1374 97.9834 13.287C98.0089 13.725 97.977 14.1488 97.8878 14.5585C97.7979 14.9589 97.6442 15.3222 97.4267 15.6485C97.2178 15.9647 96.9346 16.2306 96.5772 16.4463C96.2284 16.6519 95.7935 16.7754 95.2725 16.8167C94.7328 16.8596 94.2692 16.7981 93.8815 16.6323C93.5024 16.4565 93.1847 16.2289 92.9284 15.9497L93.1857 19.1875C93.1931 19.2805 93.1711 19.3572 93.1197 19.4174C93.069 19.487 92.9925 19.5258 92.8902 19.534L92.2203 19.5872ZM94.8896 15.7096C95.3734 15.6712 95.7421 15.5389 95.9956 15.3128C96.2577 15.0766 96.436 14.7862 96.5303 14.4417C96.6239 14.0878 96.6645 13.7148 96.6521 13.3225C96.6399 13.052 96.6185 12.7821 96.5878 12.5131C96.5381 12.1238 96.4395 11.7665 96.2919 11.4411C96.1436 11.1065 95.9218 10.8479 95.6264 10.6654C95.3396 10.4728 94.9543 10.3958 94.4705 10.4342C94.0146 10.4704 93.6509 10.607 93.3795 10.8439C93.1174 11.0801 92.9298 11.3712 92.8169 11.7172C92.7125 12.0532 92.6647 12.3941 92.6734 12.7398C92.6759 12.8894 92.6853 13.0665 92.7016 13.2712C92.7179 13.4759 92.7369 13.657 92.7588 13.8144C92.794 14.1393 92.8939 14.4544 93.0586 14.7596C93.2326 15.0641 93.4719 15.3073 93.7766 15.489C94.0813 15.6708 94.4523 15.7443 94.8896 15.7096ZM101.196 18.874C101.122 18.88 101.055 18.8572 100.994 18.8058C100.934 18.7544 100.901 18.6915 100.895 18.6171C100.892 18.5799 100.894 18.5423 100.9 18.5043C100.907 18.4664 100.921 18.4184 100.945 18.3604L101.817 15.721L98.651 9.63863C98.5956 9.53068 98.5661 9.45344 98.5624 9.40692C98.5557 9.32319 98.5781 9.25119 98.6295 9.19093C98.6809 9.13067 98.7484 9.09721 98.8322 9.09056L99.516 9.03623C99.609 9.02884 99.6853 9.04619 99.7448 9.08827C99.8044 9.13036 99.846 9.18322 99.8698 9.24687L102.395 14.1583L104.168 8.90537C104.191 8.83803 104.224 8.77924 104.267 8.72903C104.319 8.67807 104.396 8.64853 104.498 8.6404L105.154 8.58829C105.238 8.58164 105.31 8.604 105.37 8.65539C105.43 8.70678 105.464 8.76969 105.469 8.84412C105.473 8.89064 105.457 8.97623 105.42 9.10088L102.182 18.557C102.16 18.6243 102.122 18.6835 102.07 18.7344C102.027 18.7846 101.955 18.8138 101.852 18.8219L101.196 18.874Z" fill="#B5B1A2"/>
<path fill-rule="evenodd" clip-rule="evenodd" d="M16.8649 20.8364L20.4203 23.8684C21.0252 24.3842 21.098 25.3015 20.5822 25.9064C20.0664 26.5112 19.1496 26.5841 18.5447 26.0683L14.9888 23.0358L13.5602 25.2779C13.3226 25.651 12.771 25.6215 12.5743 25.2249L7.8861 15.763C7.66588 15.3187 8.08879 14.8228 8.5623 14.9701L18.6458 18.1059C19.0685 18.2376 19.1847 18.7771 18.8538 19.0711L16.8654 20.8358L16.8649 20.8364Z" fill="#B4B0A1"/>
<path d="M2.54598 11.1953C2.33136 11.0122 2.30579 10.6904 2.48882 10.4758C2.67189 10.2616 2.99373 10.2361 3.20781 10.4186L6.57242 13.288C6.7865 13.4705 6.81207 13.7924 6.62954 14.007C6.44651 14.2216 6.12467 14.2472 5.91005 14.0641L2.54598 11.1953Z" fill="#B4B0A1"/>
<path d="M7.40353 8.27667C7.38123 7.996 7.59061 7.75048 7.87178 7.72815C8.15244 7.70585 8.39796 7.91522 8.42026 8.19589L8.77045 12.6037C8.79275 12.8844 8.58337 13.1299 8.3027 13.1522C8.02153 13.1746 7.77602 12.9652 7.75372 12.6845L7.40353 8.27667Z" fill="#B4B0A1"/>
<path d="M12.902 9.64809C13.0851 9.43397 13.407 9.4084 13.621 9.59097C13.8357 9.774 13.8612 10.0958 13.6782 10.3105L10.8093 13.6745C10.6268 13.8891 10.3045 13.9147 10.0903 13.7316C9.87571 13.5486 9.85014 13.2268 10.0332 13.0127L12.902 9.64809Z" fill="#B4B0A1"/>
<path d="M1.17439 16.6936C0.893726 16.7159 0.647668 16.5061 0.625369 16.2254C0.603071 15.9447 0.81291 15.6987 1.09358 15.6764L5.50092 15.3262C5.78209 15.3039 6.02765 15.5138 6.04994 15.7944C6.07224 16.0751 5.86291 16.3211 5.58174 16.3435L1.17439 16.6936Z" fill="#B4B0A1"/>
<path d="M4.09216 21.5515C3.90959 21.7656 3.58775 21.7911 3.37317 21.6086C3.15854 21.4256 3.13297 21.1037 3.316 20.8891L6.18488 17.525C6.36795 17.3109 6.68979 17.2854 6.90437 17.4679C7.11849 17.651 7.14406 17.9728 6.96153 18.1874L4.09216 21.5515Z" fill="#B4B0A1"/>
</svg>
