<svg width="147" height="164" viewBox="0 0 147 164" fill="none" xmlns="http://www.w3.org/2000/svg">
<g filter="url(#filter0_f_421_724)">
<path d="M127.018 111.619L30.2305 118.033L28.0909 146.237L129.463 133.385L127.018 111.619Z" fill="black" fill-opacity="0.29"/>
</g>
<g filter="url(#filter1_f_421_724)">
<path d="M130.009 118.937L18.7528 126.31L17.9806 144.902L140.282 130.282L130.009 118.937Z" fill="url(#paint0_linear_421_724)" fill-opacity="0.4"/>
</g>
<g filter="url(#filter2_f_421_724)">
<path d="M124.159 23.1138L8.18166 27.2925L13.328 135.188L138.054 126.922L124.159 23.1138Z" fill="url(#paint1_linear_421_724)" fill-opacity="0.3"/>
</g>
<path d="M3 9.59625L132.715 0.999384C135.361 40.9118 135.881 71.4443 142.31 130.649L9.60114 139.444C6.90166 68.4671 5.57795 60.3049 3 9.59625Z" fill="#FFF8B7"/>
<path d="M3 9.59625L132.715 0.999384C135.361 40.9118 135.881 71.4443 142.31 130.649L9.60114 139.444C6.90166 68.4671 5.57795 60.3049 3 9.59625Z" fill="url(#paint2_linear_421_724)"/>
<path d="M3 9.59625L132.715 0.999384C135.361 40.9118 135.881 71.4443 142.31 130.649L9.60114 139.444C6.90166 68.4671 5.57795 60.3049 3 9.59625Z" fill="url(#paint3_radial_421_724)"/>
<path d="M3 9.59625L132.715 0.999384C135.361 40.9118 135.881 71.4443 142.31 130.649L9.60114 139.444C6.90166 68.4671 5.57795 60.3049 3 9.59625Z" fill="url(#paint4_diamond_421_724)"/>
<path d="M3 9.59625L132.715 0.999384C135.361 40.9118 135.881 71.4443 142.31 130.649L9.60114 139.444C6.90166 68.4671 5.57795 60.3049 3 9.59625Z" fill="url(#paint5_diamond_421_724)"/>
<g clip-path="url(#clip0_421_724)">
<path d="M25.6928 34.1978C25.6732 34.5345 25.5651 35.3539 25.3684 36.656C25.1815 37.947 25.081 38.8026 25.0669 39.2228C25.0311 40.1055 24.8249 40.8685 24.4483 41.5118C24.0815 42.144 23.585 42.5594 22.9588 42.7582C22.7307 42.7942 22.5644 42.8157 22.46 42.8227C21.6148 42.8787 20.9687 42.6176 20.5216 42.0393C20.3089 41.6761 20.1829 41.1971 20.1434 40.6024C20.0805 39.6528 20.2291 38.574 20.5892 37.3658C20.9591 36.1465 21.368 35.3596 21.8162 35.005C21.8941 34.916 21.8632 34.8447 21.7234 34.791C20.9317 35.0217 20.3897 35.1467 20.0976 35.166C18.9811 35.24 18.3792 34.6197 18.2921 33.3049C18.2859 33.211 18.287 33.0694 18.2954 32.8802C18.5135 32.0588 19.0316 31.4166 19.8498 30.9536C20.8273 30.6792 21.3995 30.5365 21.5664 30.5254C22.9654 30.4432 23.9962 30.6578 24.6589 31.1694C25.2772 31.6419 25.6205 32.3947 25.689 33.4278C25.7049 33.6678 25.7069 33.9349 25.6949 34.2291L25.6928 34.1978ZM38.0942 35.3096L38.1099 35.3085C37.9256 36.9557 37.4241 38.561 36.6054 40.1245C35.9079 41.4598 34.8726 42.1258 33.4994 42.1225C33.1432 42.1251 32.8076 42.0425 32.4926 41.8748C32.1768 41.6966 31.9794 41.4843 31.9002 41.238C31.8203 40.9813 31.7706 40.7069 31.7513 40.4147C31.7029 39.6843 31.9118 39.0416 32.3781 38.4867C32.5723 38.2537 32.8544 38.0045 33.2246 37.7389C32.8601 37.7735 32.609 37.7797 32.4712 37.7574C31.9614 37.6549 31.4752 37.4356 31.0128 37.0994C30.5601 36.7521 30.2194 36.3555 29.9907 35.9095C29.7745 35.4941 29.6547 35.0305 29.6312 34.5185C29.6036 33.9439 29.696 33.3613 29.9084 32.7708C30.1201 32.1699 30.3968 31.6799 30.7385 31.301C31.4881 30.2766 32.5203 29.7208 33.835 29.6337C34.1585 29.6123 34.4788 29.6225 34.796 29.6643C35.7156 29.7816 36.5342 30.2723 37.2517 31.1365C37.7412 31.7225 38.0205 32.5371 38.0897 33.5806C38.1153 33.9667 38.1168 34.543 38.0942 35.3096ZM34.4211 33.2578L34.4367 33.2568C34.2998 32.9305 34.1635 32.7718 34.0279 32.7808C33.9653 32.7849 33.9093 32.8096 33.8599 32.8548C33.5495 33.0745 33.4172 33.5287 33.4628 34.2174C33.476 34.4156 33.4968 34.5715 33.5253 34.6849C33.5676 34.8497 33.6532 34.9541 33.7818 34.998C34.0176 35.0767 34.1874 35.0288 34.2911 34.8542C34.4797 34.5378 34.5658 34.1757 34.5492 33.7681C34.5389 33.6116 34.4961 33.4415 34.4211 33.2578ZM41.6312 29.5729L41.6468 29.5719C41.8987 29.419 42.1759 29.3325 42.4785 29.3124C43.1255 29.2695 43.6068 29.4944 43.9224 29.987C44.1685 30.2222 44.4181 30.6668 44.671 31.3208C45.0004 32.1794 45.1884 32.6438 45.235 32.714C45.5641 30.7219 46.0164 29.4028 46.592 28.7568C46.8765 28.6227 47.1805 28.5449 47.504 28.5234C47.9944 28.4909 48.3944 28.5954 48.7038 28.8369C49.2811 29.1655 49.5974 29.7472 49.6527 30.5819C49.6162 31.4542 49.412 32.4058 49.0401 33.4365C48.818 34.0382 48.4368 34.9281 47.8965 36.1062C47.9263 36.5549 47.965 37.2179 48.0126 38.0951C48.0429 38.8686 47.9654 39.5183 47.7802 40.0441C47.5497 40.6777 47.1235 41.1252 46.5015 41.3865C46.3359 41.4185 46.2166 41.4368 46.1436 41.4417C45.3088 41.497 44.7079 41.2067 44.3408 40.5708C44.1671 40.163 44.0577 39.6201 44.0128 38.9418C43.9914 38.6183 43.9765 38.3154 43.9683 38.033C43.9538 37.6566 43.9351 37.3749 43.9123 37.1878C42.0073 34.3795 41.0141 32.3597 40.9325 31.1284C40.8841 30.398 41.117 29.8795 41.6312 29.5729ZM61.1536 29.9455L61.1692 29.9444C61.2109 30.0989 61.2401 30.3013 61.2566 30.5518C61.2808 31.0742 61.1819 31.479 60.9598 31.7662C60.8728 31.8768 60.4585 32.03 59.7169 32.2259C58.9851 32.4106 58.6101 32.5246 58.592 32.5677C58.5787 32.6838 58.771 33.7663 59.1688 35.8151C59.2486 36.229 59.3024 36.6447 59.33 37.062C59.3929 38.0116 59.3196 38.8025 59.11 39.4347C58.8481 40.2276 58.4139 40.6337 57.8073 40.6529C56.8244 40.6867 56.1205 40.4241 55.6957 39.8654C55.3745 39.4465 55.1772 38.7626 55.1038 37.8137C55.1093 37.8972 55.0939 37.348 55.0575 36.1661L55.003 34.1575C55.0032 33.5287 55.0351 32.9816 55.0986 32.5162C55.0373 32.5412 54.9441 32.5579 54.8189 32.5662C54.4641 32.5897 54.1055 32.5558 53.7432 32.4646C53.2528 32.3399 52.9089 32.1321 52.7115 31.8412C52.4327 31.43 52.2808 31.0366 52.2559 30.6609C52.2144 30.0349 52.5266 29.5268 53.1925 29.1368C54.0497 28.6294 55.1044 28.3341 56.3565 28.2511C57.0139 28.2076 57.7067 28.2245 58.435 28.302C58.7877 28.4044 59.3222 28.5629 60.0386 28.7774C60.643 29.0413 61.0147 29.4307 61.1536 29.9455ZM71.7686 28.9904L71.754 29.0071C72.3637 29.8261 72.6983 30.6843 72.7578 31.5817C72.8221 32.5521 72.564 33.481 71.9835 34.3684C71.4984 35.1132 70.3626 35.6863 68.5761 36.0877C68.5683 36.2873 68.6103 36.6042 68.7019 37.0383C68.8165 37.5023 68.8759 37.7656 68.8801 37.8283C68.905 38.2039 68.8276 38.6178 68.6479 39.0698C68.5581 39.2959 68.3511 39.493 68.0269 39.6612C67.7131 39.8288 67.3527 39.926 66.9457 39.953C66.3405 39.9931 65.8446 39.8635 65.458 39.5642C65.081 39.2538 64.8576 38.8075 64.7875 38.2252C64.4798 37.2186 64.2938 36.1514 64.2295 35.0238L64.0075 31.6743C64.0013 31.5803 63.9966 31.1929 63.9934 30.5119C63.9943 29.8935 64.0644 29.37 64.2037 28.9416C64.3869 28.3844 64.6785 28.0402 65.0785 27.9089C66.0017 27.6067 66.8442 27.4303 67.6059 27.3798C69.4529 27.2574 70.8352 27.7946 71.753 28.9915L71.7686 28.9904ZM68.9355 32.0236C69.0442 31.7649 69.0909 31.5208 69.0756 31.2912C69.0369 30.7069 68.6346 30.4086 67.8687 30.3965C67.8456 30.8382 67.8417 31.1739 67.8569 31.4034C67.8783 31.7269 67.8994 31.9665 67.9202 32.1224C67.957 32.361 68.0063 32.7088 68.068 33.1659C68.1564 33.0762 68.2684 32.9482 68.4041 32.782C68.6575 32.4927 68.829 32.2351 68.9188 32.009L68.9355 32.0236ZM75.5156 27.3272L75.5312 27.3262C75.7831 27.1733 76.0603 27.0868 76.3629 27.0667C77.0099 27.0238 77.4912 27.2487 77.8068 27.7413C78.053 27.9766 78.3025 28.4212 78.5555 29.0751C78.8849 29.9337 79.0728 30.3981 79.1194 30.4683C79.4485 28.4762 79.9008 27.1571 80.4764 26.5111C80.7609 26.377 81.065 26.2992 81.3884 26.2778C81.8789 26.2452 82.2788 26.3497 82.5883 26.5913C83.1655 26.9198 83.4818 27.5015 83.5371 28.3362C83.5006 29.2085 83.2964 30.1601 82.9245 31.1908C82.7024 31.7925 82.3212 32.6824 81.7809 33.8606C81.8107 34.3092 81.8494 34.9722 81.897 35.8494C81.9273 36.6229 81.8499 37.2726 81.6646 37.7984C81.4341 38.4321 81.0079 38.8795 80.3859 39.1408C80.2203 39.1728 80.101 39.1912 80.028 39.196C79.1932 39.2513 78.5923 38.961 78.2253 38.3251C78.0515 37.9174 77.9422 37.3744 77.8972 36.6961C77.8758 36.3727 77.8609 36.0697 77.8527 35.7873C77.8382 35.4109 77.8196 35.1292 77.7967 34.9421C75.8918 32.1338 74.8985 30.114 74.8169 28.8827C74.7685 28.1523 75.0014 27.6338 75.5156 27.3272ZM94.6013 37.0039C94.2074 37.5436 93.7169 37.8905 93.1297 38.0447C92.4187 38.2281 91.771 38.3391 91.1867 38.3779C89.8719 38.465 88.8234 38.1415 88.0411 37.4073C87.4515 36.7337 87.1297 35.9899 87.0758 35.176C87.0384 34.6126 87.1444 34.0763 87.3936 33.5672C87.5224 33.2966 87.957 32.8172 88.6974 32.1288C88.3448 32.0264 88.0933 31.9487 87.9431 31.8958C87.6955 31.7969 87.5265 31.6981 87.4361 31.5993C87.0738 31.1936 86.872 30.6777 86.8305 30.0516C86.7378 28.6534 87.2613 27.5392 88.4011 26.7091C89.051 26.2363 89.7568 25.9747 90.5185 25.9242C91.2176 25.8779 91.915 25.9626 92.6105 26.1786C92.8463 26.2573 93.0977 26.4135 93.3647 26.6474C93.5789 26.8742 93.7983 27.1007 94.0229 27.3269C94.31 27.7061 94.473 28.1879 94.5117 28.7722C94.5504 29.3566 94.4469 29.9294 94.2011 30.4907C93.9553 31.0519 93.6174 31.4883 93.1874 31.7998C93.2451 31.8798 93.4239 31.9675 93.7237 32.0629C94.0332 32.1472 94.205 32.2092 94.239 32.2489C94.9566 32.9559 95.3414 33.7007 95.3932 34.4833C95.4513 35.3598 95.1874 36.2 94.6013 37.0039ZM91.1048 28.8408C91.0938 28.6739 91.0051 28.6011 90.8389 28.6226C90.6246 28.7102 90.4735 28.8827 90.3858 29.14C90.3217 29.4377 90.2684 29.6613 90.2259 29.8109C90.2598 30.3222 90.2674 30.5156 90.2486 30.391C90.2729 30.599 90.3605 30.7347 90.5114 30.7981C91.057 30.175 91.2653 29.5219 91.1361 28.8387L91.1048 28.8408ZM91.3804 33.9475L91.3971 33.9621C91.3032 33.8111 91.1415 33.7432 90.912 33.7585C90.5724 34.1687 90.4532 34.7426 90.5544 35.48C90.5704 35.5628 90.6184 35.6539 90.6983 35.7534C90.882 35.6784 91.1082 35.4538 91.3768 35.0796C91.475 34.8216 91.5179 34.5987 91.5054 34.4108C91.4944 34.2439 91.4527 34.0894 91.3804 33.9475ZM107.598 26.6945L107.612 26.6778C107.687 27.1654 107.744 27.7119 107.784 28.3171C107.942 30.7066 107.708 32.944 107.081 35.0292C106.918 35.5745 106.637 36.0805 106.238 36.5471C105.849 37.0026 105.43 37.3134 104.98 37.4794C104.556 37.5704 104.141 37.6294 103.734 37.6563C102.576 37.7331 101.587 37.5261 100.769 37.0354C99.9834 36.5739 99.4084 35.8836 99.0436 34.9645C98.767 34.2702 98.5872 33.2969 98.5042 32.0448C98.3797 30.1666 98.4586 28.5893 98.7408 27.3129C98.83 26.9192 99.0524 26.5586 99.408 26.2311C99.774 25.9029 100.149 25.7052 100.532 25.6378C100.864 25.5844 101.198 25.6513 101.536 25.8386C101.883 26.0147 102.145 26.2593 102.323 26.5724C102.371 26.8208 102.404 27.0858 102.423 27.3676C102.446 27.7119 102.401 28.4538 102.288 29.5931C102.174 30.7325 102.129 31.464 102.15 31.7874C102.171 32.1005 102.21 32.3756 102.268 32.6128C102.342 32.7861 102.526 32.9521 102.819 33.1108C103.167 33.1297 103.409 33.0717 103.547 32.9368C103.799 32.6267 103.94 32.2295 103.971 31.7454C103.913 31.0365 103.869 30.1224 103.836 29.0032C103.881 28.0989 103.912 27.5413 103.93 27.3306C103.974 26.7303 104.043 26.2698 104.137 25.9491C104.473 25.319 104.881 24.9933 105.361 24.9719C105.811 24.9526 106.234 25.0975 106.632 25.4065C107.03 25.7155 107.352 26.1448 107.598 26.6945ZM111.647 25.1841C111.964 24.9011 112.31 24.7472 112.686 24.7223C113.479 24.6697 114.025 25.079 114.324 25.95C114.376 26.1142 114.482 26.5998 114.64 27.4068L114.868 30.1271C114.947 30.2162 115.028 30.2579 115.112 30.2524C115.188 30.1425 115.228 29.9565 115.232 29.6942C115.232 29.3798 115.232 29.2226 115.232 29.2226C115.333 28.8386 115.494 28.2673 115.716 27.5084C115.934 26.8442 116.352 26.4339 116.971 26.2777C117.419 26.2375 117.766 26.4136 118.012 26.806C118.188 27.0878 118.351 27.58 118.503 28.2827C118.623 28.8406 118.678 29.1881 118.666 29.3251C118.608 29.5595 118.635 29.8093 118.747 30.0744C118.895 30.096 118.971 30.0491 118.974 29.9336C118.958 27.6394 119.224 25.9554 119.771 24.8816C119.937 24.5457 120.132 24.3179 120.354 24.1984C120.494 24.0948 120.709 24.0176 120.999 23.967C121.507 23.8809 122 24.0421 122.478 24.4507C122.844 24.7617 123.047 25.2199 123.087 25.8251C123.103 26.0547 123.055 26.5976 122.944 27.4538C122.833 28.4673 122.656 29.983 122.412 32.0009C122.185 33.7872 121.723 35.1278 121.028 36.0228C120.771 36.2599 120.418 36.3934 119.97 36.4231C119.448 36.4577 118.96 36.3643 118.505 36.1429C118.131 35.8742 117.87 35.4985 117.723 35.0157C117.603 34.6358 117.519 34.1593 117.471 33.5861C117.404 32.8988 117.337 32.4316 117.268 32.1847C117.157 32.0977 117.066 32.0618 116.993 32.0771C116.973 32.2357 116.946 32.8662 116.914 33.9688C116.886 34.7987 116.806 35.417 116.676 35.8239C116.465 36.4457 116.002 36.8066 115.286 36.9065C114.133 37.0667 113.213 36.6246 112.525 35.5802C112.115 35.0834 111.765 34.3153 111.476 33.2759C111.197 32.2254 111.021 31.0685 110.948 29.8052C110.801 27.2787 111.034 25.7383 111.647 25.1841ZM30.848 57.3232C30.884 57.8658 30.8024 58.2957 30.6034 58.6128C30.4419 58.8646 30.2227 59.0363 29.9458 59.128C29.8025 59.1794 29.592 59.2458 29.3144 59.3271C29.0988 59.3938 28.9596 59.4292 28.897 59.4333C28.4483 59.4631 28.0543 59.2901 27.715 58.9143C27.375 58.5281 27.1853 58.0376 27.1459 57.4428C27.1306 57.2133 27.1528 56.6773 27.2122 55.8349C27.2633 55.1817 27.2346 54.6701 27.1262 54.3C27.0844 54.46 26.9542 54.9455 26.7354 55.7565C26.447 56.7817 26.1692 57.4132 25.902 57.651C25.7538 57.7866 25.5701 57.8617 25.351 57.8762C25.184 57.8873 25.0081 57.8413 24.8231 57.7383C24.2209 57.1913 23.7076 56.0881 23.2832 54.4289C23.2483 54.6932 23.2399 54.9611 23.2578 55.2324C23.2682 55.3889 23.3428 55.8817 23.4816 56.711C23.5836 57.3016 23.6151 57.7764 23.576 58.1353C23.523 58.6 23.3256 59.0218 22.9839 59.4008C22.6325 59.6337 22.2899 59.7612 21.9559 59.7833C21.4968 59.8137 21.0607 59.6383 20.6477 59.2569C20.1715 58.5548 19.8889 58.0862 19.7999 57.8511C19.6123 57.3919 19.4873 56.6927 19.4251 55.7536C19.3677 54.8875 19.3391 53.3488 19.3393 51.1374C19.3409 50.3722 19.5276 49.7101 19.8993 49.1509C20.2807 48.5807 20.8144 48.1733 21.5004 47.9287C22.8855 47.7949 24.0185 48.9199 24.8997 51.3034C24.9221 50.8513 25.0444 50.2458 25.2666 49.4869C25.5912 48.3755 25.996 47.6831 26.4809 47.4099C26.9617 47.2313 27.3742 47.1306 27.7186 47.1078C28.2925 47.0698 28.7425 47.2181 29.0686 47.5528C29.4893 47.8918 29.797 48.343 29.9915 48.9065C30.1214 49.2857 30.2301 49.8969 30.3174 50.74C30.379 51.5115 30.4406 52.2829 30.5022 53.0544C30.6574 54.7629 30.7723 56.1806 30.847 57.3076L30.848 57.3232ZM43.0495 57.2377L43.0505 57.2534C42.9898 57.7605 42.7027 58.0939 42.1893 58.2537C41.9326 58.3336 41.6634 58.3829 41.3816 58.4016C40.8703 58.4354 40.445 58.3431 40.1056 58.1245C39.856 57.8372 39.7072 57.6479 39.6593 57.5567C39.5056 57.2944 39.4146 56.9494 39.3863 56.5215C38.9675 56.5283 38.4941 56.5807 37.9661 56.6786C37.9932 56.7711 38.0234 56.9106 38.0567 57.097C38.0851 57.5248 37.9945 57.9762 37.7849 58.4513C37.5106 58.8992 37.0814 59.1425 36.497 59.1812C36.2153 59.1999 35.8623 59.1708 35.438 59.0942L35.4046 59.0649C34.4886 58.6855 33.9729 57.6244 33.8574 55.8818C33.8498 55.7671 33.8422 55.4951 33.8347 55.0659C33.8096 53.4221 33.8759 52.1286 34.0335 51.1854C34.2594 49.8499 34.7342 48.6341 35.4581 47.5381C36.0205 46.6939 36.886 46.233 38.0547 46.1555C39.3069 46.0726 40.2771 46.4013 40.9655 47.1417C41.3716 47.5759 41.6733 48.0957 41.8706 48.7009C42.5904 50.8646 43.0057 52.7812 43.1163 54.4507C43.1813 55.4316 43.1591 56.3606 43.0495 57.2377ZM38.8178 53.3994C38.8348 52.5493 38.6952 51.2328 38.3988 49.4498C38.3209 49.3816 38.2131 49.4149 38.0753 49.5498C37.9984 50.4458 37.947 51.1723 37.9211 51.7295C37.881 52.7069 37.8812 53.2623 37.9215 53.3959C37.9813 53.5072 38.0738 53.5587 38.199 53.5504C38.2407 53.5477 38.344 53.5251 38.5089 53.4827C38.6835 53.4292 38.7865 53.4014 38.8178 53.3994ZM46.7782 46.3634L46.7938 46.3624C47.0882 45.9027 47.5694 45.6507 48.2372 45.6065C49.0407 45.5532 49.5873 45.8157 49.8772 46.3939C49.916 46.6638 49.941 46.8822 49.952 47.0492C49.9659 47.2579 49.972 47.6662 49.9703 48.2742C49.9687 48.8821 49.9717 49.2435 49.9793 49.3583C50.0273 49.4494 50.0982 49.4919 50.1921 49.4857C50.2756 49.4801 50.3302 49.4346 50.356 49.349C50.3449 49.3393 50.3372 49.3031 50.3331 49.2405C50.302 48.771 50.4448 48.0803 50.7617 47.1684C51.1398 46.0744 51.6002 45.4307 52.1429 45.2376C53.3172 45.0864 54.132 45.3625 54.5874 46.066C54.7507 46.3171 54.8442 46.6201 54.8677 46.9749C54.9313 47.9349 54.6586 48.9591 54.0495 50.0475C53.8427 50.4071 53.5378 50.9461 53.1348 51.6645C53.2968 51.8948 53.5815 52.3161 53.9889 52.9284C54.7717 54.1447 55.1869 55.1128 55.2347 55.8328C55.2713 56.3858 55.1469 56.8814 54.8616 57.3195C54.6527 57.6478 54.2736 57.8563 53.724 57.9451C53.2266 58.0305 52.5896 57.512 51.813 56.3897C51.2457 55.5784 50.8599 54.8965 50.6556 54.3441C50.6111 54.3051 50.5036 54.2651 50.3332 54.224L50.2309 54.3408C50.39 55.001 50.4823 55.5241 50.5079 55.9102C50.5521 56.578 50.4618 57.1133 50.237 57.516C49.8508 57.856 49.3603 58.0457 48.7655 58.0851C48.2751 58.1176 47.8654 58.0242 47.5365 57.805C46.7583 57.2906 46.2852 55.687 46.1172 52.9942C46.0197 51.5229 46.0352 50.0965 46.1637 48.7151C46.302 47.3225 46.5068 46.5386 46.7782 46.3634ZM67.4491 55.3377L67.4335 55.3387C67.3082 55.6614 67.084 55.9959 66.7611 56.3422C66.3394 56.7789 65.9007 57.0386 65.4451 57.1212C64.5643 57.2739 63.5967 56.4314 62.5422 54.5939C62.5914 54.8631 62.6227 55.0968 62.6358 55.2951C62.6787 55.942 62.556 56.4637 62.2679 56.8601C61.81 57.2258 61.3411 57.4246 60.8611 57.4564C60.6524 57.4702 60.4632 57.4618 60.2935 57.4311C59.6675 57.3154 59.2526 57.1438 59.0489 56.9162C58.7777 56.6198 58.6151 56.0646 58.5612 55.2507L58.5197 54.6247C58.4863 54.5954 58.4349 53.6608 58.3653 51.8209C58.2903 49.7402 58.3055 48.1514 58.411 47.0545C58.4948 46.2629 59.0122 45.6889 59.9633 45.3324C60.4134 45.1663 61.307 44.9708 62.6441 44.746C64.244 44.6923 65.3749 45.1519 66.0368 46.1246C66.5526 47.1071 66.8332 48.0212 66.8788 48.8671C66.9258 49.7339 66.7391 50.4746 66.3187 51.0894C66.2519 51.1882 65.9728 51.4844 65.4815 51.9781C66.745 53.173 67.4051 54.1982 67.4618 55.0539C67.4659 55.1165 67.4617 55.2111 67.4491 55.3377ZM62.4893 48.3405L62.4736 48.3416C62.4097 48.3249 62.3568 48.3179 62.3151 48.3207C62.2733 48.3234 62.1164 48.4072 61.8444 48.5719C61.8054 48.6164 61.8074 48.8836 61.8503 49.3733C61.8988 49.9465 61.94 50.4888 61.9738 51.0001C62.3614 50.8381 62.6825 50.623 62.9372 50.3546C63.2016 50.075 63.3245 49.7944 63.3059 49.5126C63.2803 49.1266 63.0081 48.7359 62.4893 48.3405ZM78.0775 49.3983C78.173 50.8383 77.946 52.1581 77.3967 53.3579C76.7297 54.8379 75.6591 55.8416 74.1849 56.369C73.3744 56.4751 72.6326 56.43 71.9593 56.2335C71.2958 56.026 70.9352 55.725 70.8776 55.3305C70.5051 52.5569 70.2338 49.8867 70.0637 47.3198C70.0008 46.3702 69.9767 45.6906 69.9915 45.2809C70.215 44.7001 71.0363 44.3627 72.4554 44.2687C73.2589 44.2154 73.9799 44.2619 74.6184 44.4083C75.2958 44.6673 75.9238 45.1288 76.5023 45.7926C77.4667 46.9025 77.9918 48.1044 78.0775 49.3983ZM74.0712 48.2489C73.9134 48.0812 73.7666 48.0019 73.631 48.0109C73.5683 48.015 73.4915 48.0411 73.4003 48.089C73.3092 48.137 73.2584 48.1613 73.248 48.162C73.4118 48.8953 73.5665 50.1217 73.7119 51.8414C74.0007 51.6126 74.2307 51.2882 74.402 50.8681C74.5837 50.4473 74.6607 50.0282 74.6331 49.6109C74.5971 49.0683 74.4098 48.6143 74.0712 48.2489ZM89.0033 45.986C89.0463 46.1613 89.0738 46.3376 89.0855 46.515C89.1229 47.0785 89.0371 47.5243 88.8283 47.8526C88.506 48.3665 87.9891 48.6314 87.2774 48.6471C86.6284 48.6587 86.1753 48.3848 85.9182 47.8254L85.8891 47.3871C85.8801 47.2515 85.8207 47.1454 85.7108 47.0688L85.6179 47.0907C85.0622 48.8253 84.8223 50.2666 84.8984 51.4144C84.924 51.8005 84.9277 51.9365 84.9097 51.8224C84.9298 51.9678 85.0289 52.1184 85.2069 52.2743C85.6633 52.2021 85.9409 52.0422 86.0397 51.7946C86.0822 51.6451 86.0159 51.5133 85.8406 51.3991C85.6723 51.3893 85.5658 51.3649 85.5213 51.3259C85.4031 51.2814 85.335 51.202 85.3169 51.088C85.2788 50.8285 85.3384 50.5416 85.4957 50.2272L85.8662 49.8882C85.9706 49.8813 86.2408 49.8477 86.677 49.7873C87.123 49.7158 87.419 49.6753 87.565 49.6656C88.1702 49.6255 88.6342 49.7467 88.9568 50.0292C89.1745 50.3083 89.2995 50.693 89.332 51.1834C89.3701 51.7573 89.2944 52.3545 89.1049 52.9749C88.8987 53.6593 88.5813 54.2463 88.1526 54.7359C87.6654 55.2922 87.1064 55.6332 86.4754 55.7588C86.1547 55.822 85.8743 55.8615 85.6343 55.8774C84.7161 55.9383 83.8773 55.6952 83.1179 55.1482C82.5893 54.764 82.1565 54.1638 81.8195 53.3477C81.4824 52.5316 81.279 51.5966 81.2091 50.5427C81.1144 49.1132 81.262 47.7829 81.6521 46.5518C82.0421 45.3207 82.6163 44.418 83.3748 43.8437C83.8987 43.526 84.4998 43.3447 85.1781 43.2997C85.7728 43.2603 86.3286 43.344 86.8454 43.5508C88.1215 44.3046 88.8304 45.117 88.972 45.988L89.0033 45.986ZM100.745 43.7457L100.823 44.2122C100.951 46.1426 99.7304 48.3615 97.1612 50.8689C97.0895 51.0518 97.1541 51.1576 97.3551 51.1862C97.7281 50.9624 98.3424 50.8221 99.198 50.7654C99.7197 50.7308 100.109 50.747 100.365 50.8138C100.866 50.9483 101.145 51.3647 101.202 52.0631C101.213 52.2301 101.194 52.42 101.145 52.6328C100.941 53.5058 100.628 54.0715 100.205 54.3301C99.0135 54.7025 97.865 54.9254 96.7589 54.9987C95.5276 55.0803 94.4873 54.9606 93.6381 54.6396C93.1116 54.4439 92.7299 53.9819 92.493 53.2534C92.4669 52.2281 92.6116 51.3277 92.927 50.5522C93.2418 49.7662 93.823 48.8893 94.6706 47.9213C95.4416 47.3776 95.8751 46.8825 95.9713 46.4359C95.8844 46.3893 95.7731 46.3705 95.6374 46.3795C95.4913 46.3892 95.3306 46.4155 95.1553 46.4586C94.98 46.5016 94.8409 46.5371 94.7379 46.5649C94.635 46.5926 94.4635 46.6145 94.2235 46.6304C93.5452 46.6753 93.0257 46.4268 92.6649 45.8848C92.537 45.6941 92.4619 45.4318 92.4398 45.0979C92.3803 44.2006 92.5903 43.5735 93.0697 43.2169C93.7092 42.7448 95.0567 42.4406 97.1123 42.3044C98.1349 42.2366 98.7064 42.2407 98.8267 42.3165C99.2169 42.3536 99.5991 42.5064 99.9733 42.775C100.347 43.0437 100.604 43.3568 100.743 43.7144L100.745 43.7457ZM111.915 47.1557C112.011 48.5957 111.784 49.9155 111.234 51.1153C110.567 52.5953 109.497 53.599 108.023 54.1264C107.212 54.2325 106.47 54.1874 105.797 53.991C105.133 53.7834 104.773 53.4824 104.715 53.088C104.343 50.3144 104.071 47.6441 103.901 45.0772C103.838 44.1276 103.814 43.448 103.829 43.0383C104.053 42.4575 104.874 42.1201 106.293 42.0261C107.097 41.9728 107.818 42.0194 108.456 42.1657C109.133 42.4247 109.761 42.8862 110.34 43.55C111.304 44.6599 111.829 45.8618 111.915 47.1557ZM107.909 46.0064C107.751 45.8387 107.604 45.7593 107.469 45.7683C107.406 45.7724 107.329 45.7985 107.238 45.8465C107.147 45.8944 107.096 45.9187 107.086 45.9194C107.249 46.6527 107.404 47.8791 107.55 49.5988C107.838 49.37 108.068 49.0456 108.24 48.6255C108.421 48.2047 108.498 47.7857 108.471 47.3683C108.435 46.8257 108.247 46.3717 107.909 46.0064ZM124.584 53.2017C124.508 53.7937 123.976 54.2272 122.988 54.5023C122.895 54.5294 122.787 54.5471 122.661 54.5554C121.994 54.5996 121.367 54.2325 120.781 53.4538C120.401 53.5733 119.823 53.6326 119.047 53.6316C118.313 53.6278 117.61 53.3705 116.937 52.8596C116.264 52.3488 115.79 51.6937 115.517 50.8943C115.244 50.0845 115.076 49.2205 115.015 48.3022C114.811 45.224 115.481 42.9892 117.024 41.5979C117.542 41.3539 118.098 41.2122 118.693 41.1728C119.528 41.1175 120.264 41.3045 120.9 41.734C121.175 41.9254 121.579 42.2602 122.114 42.7383C123.14 43.6659 123.72 45.0685 123.855 46.9461C123.912 47.8017 123.867 48.8684 123.721 50.1462C123.723 50.1671 123.685 50.3059 123.607 50.5625C123.54 50.808 123.509 50.9726 123.514 51.056C124.223 51.7846 124.594 52.4046 124.628 52.9159C124.632 52.9785 124.628 53.0731 124.615 53.1997L124.584 53.2017ZM120.033 49.2902L119.389 45.9844C119.378 45.8174 119.284 45.745 119.108 45.7672C118.893 46.012 118.764 46.3507 118.719 46.7834C118.674 47.2056 118.664 47.6098 118.69 47.9958C118.715 48.3819 118.742 48.7103 118.771 48.9809C118.795 49.1993 118.81 49.3346 118.813 49.3868C118.826 49.4278 118.828 49.3701 118.817 49.2136C118.833 49.4431 118.864 49.7555 118.911 50.1506C118.933 50.1701 118.955 50.1792 118.976 50.1778C119.017 50.175 119.068 50.1455 119.127 50.0891C119.152 49.6787 119.296 49.3967 119.558 49.2431C119.579 49.2417 119.629 49.2803 119.707 49.359C119.786 49.4376 119.841 49.4759 119.872 49.4738C119.936 49.4905 119.983 49.4822 120.012 49.4488C120.041 49.405 120.048 49.3521 120.033 49.2902ZM29.4704 75.4108L29.4548 75.4118C28.7109 76.2052 27.8798 76.6324 26.9615 76.6932C26.4398 76.7278 25.8513 76.6253 25.1962 76.3858C23.8002 75.8809 22.9148 74.7762 22.5398 73.0718C22.4648 72.7309 22.4125 72.3362 22.3827 71.8875C22.2824 70.3744 22.4656 68.9474 22.9322 67.6065C23.4949 65.9761 24.354 64.9445 25.5096 64.5116C25.7858 64.4094 26.0439 64.3504 26.2839 64.3345C26.8057 64.2999 27.2553 64.4431 27.6329 64.7639C28.021 65.084 28.2309 65.4841 28.2627 65.9641C28.3021 66.5589 28.025 67.2008 27.4314 67.8899C27.3145 68.0235 26.8221 68.5015 25.9544 69.3241C25.9968 69.3318 26.1784 69.304 26.4991 69.2408C26.8817 69.1631 27.2139 69.1149 27.4956 69.0962C28.1008 69.0561 28.5682 69.1509 28.8979 69.3805C29.7658 69.9833 30.2409 70.9055 30.3232 72.1472C30.3647 72.7733 30.3015 73.4011 30.1336 74.0306C29.9657 74.66 29.7446 75.1201 29.4704 75.4108ZM26.5753 71.814C26.5586 71.7208 26.5075 71.6613 26.422 71.6355C26.3795 71.6278 26.2268 71.617 25.9639 71.603C25.8039 71.7184 25.7168 71.9075 25.7028 72.1705C25.6923 72.3284 25.6818 72.5649 25.6712 72.88C25.6919 73.3503 25.7586 73.6445 25.8712 73.7628C25.9255 73.7907 26.0378 73.7466 26.2083 73.6305C26.4666 73.0998 26.5837 72.4946 26.5596 71.815L26.5753 71.814ZM42.1237 64.6682L42.2018 65.1346C42.3298 67.065 41.1091 69.2839 38.5399 71.7913C38.4682 71.9743 38.5328 72.08 38.7338 72.1086C39.1068 71.8848 39.7211 71.7445 40.5767 71.6878C41.0985 71.6532 41.4873 71.6694 41.7433 71.7362C42.2448 71.8707 42.5239 72.2871 42.5807 72.9856C42.5917 73.1525 42.5729 73.3424 42.5241 73.5553C42.3199 74.4282 42.0063 74.9939 41.5833 75.2526C40.3922 75.6249 39.2437 75.8478 38.1376 75.9211C36.9063 76.0027 35.8661 75.883 35.0168 75.562C34.4903 75.3663 34.1086 74.9043 33.8717 74.1758C33.8456 73.1505 33.9903 72.2501 34.3058 71.4746C34.6205 70.6886 35.2017 69.8117 36.0493 68.8437C36.8203 68.3 37.2539 67.8049 37.35 67.3584C37.2631 67.3117 37.1518 67.2929 37.0161 67.3019C36.8701 67.3116 36.7094 67.3379 36.534 67.381C36.3587 67.4241 36.2196 67.4595 36.1166 67.4873C36.0137 67.515 35.8422 67.5369 35.6022 67.5528C34.9239 67.5977 34.4044 67.3492 34.0436 66.8072C33.9157 66.6165 33.8406 66.3542 33.8185 66.0203C33.759 65.123 33.969 64.4959 34.4484 64.1393C35.0879 63.6672 36.4354 63.363 38.4911 63.2268C39.5137 63.159 40.0851 63.1631 40.2054 63.2389C40.5957 63.276 40.9778 63.4288 41.352 63.6975C41.7261 63.9661 41.9827 64.2792 42.1217 64.6368L42.1237 64.6682ZM48.5124 72.0737L48.528 72.0726C48.8974 71.9538 49.078 71.7532 49.0698 71.4708C49.0629 71.3664 49.0093 71.2704 48.9092 71.1827C48.8195 71.0943 48.4759 70.8918 47.8785 70.575C47.3785 70.3042 47.012 70.0718 46.779 69.8776C46.4571 69.6055 46.1543 69.2273 45.8706 68.743C45.5036 68.1071 45.2976 67.45 45.2526 66.7717C45.1876 65.7909 45.5156 64.8888 46.2366 64.0654C47.0355 63.1531 48.0298 62.6575 49.2193 62.5787C49.908 62.533 50.5396 62.6536 51.1141 62.9404C51.4722 63.1263 51.8683 63.4878 52.3021 64.025C52.4857 64.2644 52.5899 64.4933 52.6149 64.7117C52.6426 64.9719 52.5385 65.2985 52.3025 65.6914L52.3192 65.706C52.0164 66.1977 51.6824 66.4556 51.3172 66.4798C51.192 66.4881 51.0181 66.4735 50.7955 66.4358C50.4561 66.3745 50.2437 66.0951 50.1583 65.5977C50.1243 65.4008 49.9664 65.3117 49.6847 65.3304C49.5386 65.3401 49.4106 65.3852 49.3006 65.4659C49.1997 65.6822 49.1561 65.8947 49.17 66.1034C49.1935 66.4581 49.3801 66.7445 49.73 66.9623C51.0193 67.7572 51.7805 68.2518 52.0135 68.4459C52.8451 69.1349 53.3141 69.8847 53.4202 70.6951C53.4437 70.8927 53.477 71.1577 53.52 71.4902C53.6301 72.8349 52.8909 73.9372 51.3025 74.7971C50.7055 75.1196 50.1305 75.2992 49.5775 75.3358C49.494 75.3414 49.3785 75.3386 49.2311 75.3274L49.1987 75.3138C47.1738 75.1231 46.0437 74.4382 45.8083 73.259C45.7486 72.9904 45.7049 72.8047 45.6771 72.7017C45.6591 72.5876 45.6514 72.5515 45.6542 72.5932C45.6355 72.3115 45.7027 72.0607 45.8559 71.841C46.009 71.6212 46.1899 71.5044 46.3986 71.4906C46.4925 71.4844 46.7773 71.5913 47.253 71.8113C47.7281 72.0208 48.0543 72.1197 48.2317 72.108C48.3047 72.1031 48.3927 72.0868 48.4957 72.059L48.5124 72.0737ZM64.9314 70.4195C64.9129 71.5631 64.5372 72.4579 63.8045 73.1039C63.4183 73.4439 62.7058 73.8422 61.6671 74.2988C61.203 74.4134 60.7206 74.4873 60.2197 74.5205C58.7485 74.618 57.6689 74.3804 56.9812 73.8076C56.8115 73.6197 56.6285 72.0441 56.4321 69.0806C56.199 65.5642 56.1546 63.6282 56.2987 63.2728C56.9877 62.5983 58.0678 62.2123 59.539 62.1148C59.9669 62.0865 60.2917 62.0859 60.5136 62.1131C61.6759 62.2562 62.5596 62.6221 63.1646 63.2108C63.7688 63.7891 64.1184 64.5572 64.2133 65.5151C64.1672 66.0841 63.9681 66.5585 63.6159 66.9381C63.4594 67.1057 63.1195 67.3536 62.5962 67.6817C63.2828 67.762 63.843 68.0707 64.2768 68.6079C64.7211 69.1444 64.9393 69.7483 64.9314 70.4195ZM60.5979 65.2831L60.5833 65.2998C60.5132 65.0319 60.2746 64.9115 59.8677 64.9385C59.732 64.9475 59.6544 64.9631 59.635 64.9853C59.5626 65.0006 59.4993 65.0729 59.445 65.2023C59.5588 65.8131 59.6097 66.5014 59.5976 67.2673L60.2572 66.7834C60.5343 66.2201 60.6635 65.7975 60.6448 65.5158C60.6413 65.4636 60.6257 65.3861 60.5979 65.2831ZM60.6522 70.6088L60.6532 70.6245C60.7104 70.3796 60.7334 70.1737 60.7223 70.0068C60.6905 69.5268 60.5129 69.2975 60.1894 69.319C60.012 69.3307 59.8444 69.4099 59.6864 69.5567C59.7058 69.6916 59.7068 69.9431 59.6892 70.3111C59.6557 70.7535 59.642 71.0216 59.6482 71.1155C59.6524 71.1781 59.6735 71.3392 59.7117 71.5987C60.022 71.5362 60.254 71.4003 60.4078 71.191C60.4746 71.0922 60.5561 70.8982 60.6522 70.6088ZM76.2195 63.0216L76.2352 63.0205C76.2768 63.175 76.306 63.3774 76.3226 63.6278C76.3467 64.1503 76.2478 64.5551 76.0258 64.8423C75.9388 64.9529 75.5245 65.1061 74.7828 65.302C74.051 65.4867 73.676 65.6006 73.6579 65.6438C73.6446 65.7599 73.8369 66.8424 74.2347 68.8912C74.3145 69.3051 74.3683 69.7207 74.3959 70.1381C74.4589 71.0877 74.3855 71.8786 74.1759 72.5108C73.914 73.3037 73.4798 73.7098 72.8732 73.729C71.8903 73.7627 71.1864 73.5002 70.7616 72.9415C70.4404 72.5226 70.2431 71.8387 70.1697 70.8898C70.1753 70.9733 70.1598 70.4241 70.1234 69.2422L70.0689 67.2336C70.0691 66.6048 70.101 66.0577 70.1645 65.5923C70.1033 65.6173 70.01 65.634 69.8848 65.6423C69.53 65.6658 69.1715 65.6319 68.8091 65.5407C68.3187 65.416 67.9748 65.2082 67.7774 64.9173C67.4986 64.5061 67.3467 64.1127 67.3218 63.737C67.2804 63.1109 67.5925 62.6029 68.2584 62.2129C69.1156 61.7055 70.1703 61.4102 71.4224 61.3272C72.0798 61.2837 72.7727 61.3006 73.501 61.3781C73.8536 61.4805 74.3881 61.639 75.1045 61.8535C75.7089 62.1174 76.0806 62.5068 76.2195 63.0216ZM87.9337 60.8618C88.3489 61.1172 88.5835 61.6519 88.6374 62.4658C88.7536 64.2188 88.0808 67.1141 86.6192 71.1516C86.2647 72.1289 85.597 72.7286 84.6161 72.9508C84.4818 72.9806 84.3677 72.9987 84.2738 73.0049C83.7521 73.0395 83.2495 72.968 82.7662 72.7904C82.2828 72.6128 81.9201 72.3591 81.6782 72.0293C80.9064 70.98 80.2819 69.7009 79.8046 68.1919C79.3926 66.8777 79.1472 65.6258 79.0683 64.4363C79.0116 63.5806 79.0331 62.9556 79.1327 62.5612C79.2581 62.0813 79.5372 61.7065 79.97 61.4367C80.3423 61.2025 80.7065 61.084 81.0626 61.0814C81.7749 61.0761 82.2903 61.3406 82.6087 61.875C82.8812 62.3495 83.1441 63.312 83.3974 64.7625L83.7306 66.7055C83.7643 65.9487 83.8263 64.8284 83.9166 63.3446C84.0062 61.8505 84.329 60.9487 84.8849 60.6394C85.2488 60.4371 85.6446 60.3218 86.0725 60.2934C86.7925 60.2457 87.4129 60.4352 87.9337 60.8618ZM100.435 62.58C100.359 63.0148 100.103 63.5819 99.6675 64.2816C99.032 65.2879 98.6958 65.8289 98.6589 65.9048C98.649 66.3875 98.8909 66.8745 99.3846 67.3658C99.9902 67.965 100.343 68.4657 100.443 68.8678C100.528 69.1975 100.582 69.545 100.607 69.9102C100.674 70.7756 100.441 71.3727 99.9077 71.7015C99.6357 71.8663 99.3118 71.9611 98.9362 71.986C98.4145 72.0206 97.9206 71.9223 97.4546 71.6912C96.8907 71.2465 96.5727 70.5601 96.5007 69.6321C96.4305 69.5215 96.3526 69.5319 96.2669 69.6633C96.0867 69.9478 95.923 70.404 95.776 71.0321C95.6784 71.4578 95.4526 71.7662 95.0984 71.9574C94.7109 72.1193 94.3502 72.2113 94.0163 72.2335C93.5467 72.2646 93.1621 72.1538 92.8624 71.9012C92.3847 71.4927 92.1292 70.9594 92.0961 70.3013C92.0623 69.6328 92.2667 68.9223 92.7094 68.1698C93.2496 67.3061 93.6571 66.6555 93.932 66.218C93.9266 65.9773 93.7191 65.6138 93.3095 65.1274C92.8666 64.6118 92.6181 64.2614 92.5639 64.0764C92.3214 63.2645 92.1836 62.6081 92.1504 62.1072C92.1027 61.3873 92.2636 60.8106 92.6332 60.3774C92.8663 60.0999 93.2229 59.9453 93.7029 59.9135C94.0681 59.8893 94.4277 59.9388 94.7817 60.0621C95.1218 60.2911 95.4308 60.6846 95.7089 61.2426C95.9966 61.7894 96.1557 62.2924 96.1862 62.7516C96.191 62.8246 96.1878 62.9349 96.1767 63.0823C96.2845 63.1276 96.3638 63.1381 96.4145 63.1137C96.4684 62.3451 96.5086 61.766 96.5352 61.3765C96.6463 60.0486 97.1871 59.3524 98.1575 59.2881C98.4601 59.2681 98.8086 59.3865 99.2029 59.6433C99.97 60.1479 100.391 60.8065 100.466 61.619C100.493 61.8792 100.478 62.1947 100.418 62.5654L100.435 62.58ZM104.483 59.5763L104.499 59.5753C104.793 59.1156 105.274 58.8636 105.942 58.8194C106.745 58.7661 107.292 59.0286 107.582 59.6068C107.621 59.8767 107.646 60.0951 107.657 60.2621C107.671 60.4708 107.677 60.8791 107.675 61.4871C107.673 62.0951 107.676 62.4564 107.684 62.5712C107.732 62.6624 107.803 62.7048 107.897 62.6986C107.98 62.6931 108.035 62.6475 108.061 62.562C108.05 62.5522 108.042 62.5161 108.038 62.4534C108.007 61.9839 108.15 61.2932 108.466 60.3813C108.845 59.2873 109.305 58.6437 109.848 58.4505C111.022 58.2993 111.837 58.5754 112.292 59.2789C112.455 59.5301 112.549 59.8331 112.572 60.1878C112.636 61.1478 112.363 62.172 111.754 63.2604C111.548 63.62 111.243 64.159 110.84 64.8774C111.002 65.1077 111.286 65.529 111.694 66.1413C112.476 67.3576 112.892 68.3257 112.939 69.0457C112.976 69.5987 112.852 70.0943 112.566 70.5324C112.358 70.8607 111.978 71.0692 111.429 71.1581C110.931 71.2434 110.294 70.7249 109.518 69.6026C108.95 68.7913 108.565 68.1094 108.36 67.557C108.316 67.518 108.208 67.478 108.038 67.4369L107.936 67.5537C108.095 68.2139 108.187 68.7371 108.213 69.1232C108.257 69.791 108.167 70.3262 107.942 70.7289C107.556 71.0689 107.065 71.2586 106.47 71.298C105.98 71.3305 105.57 71.2372 105.241 71.0179C104.463 70.5035 103.99 68.8999 103.822 66.2071C103.724 64.7358 103.74 63.3095 103.868 61.928C104.007 60.5354 104.212 59.7515 104.483 59.5763ZM119.01 67.4015L119.025 67.4004C119.395 67.2816 119.575 67.081 119.567 66.7986C119.56 66.6942 119.507 66.5982 119.406 66.5105C119.317 66.4221 118.973 66.2196 118.376 65.9028C117.876 65.632 117.509 65.3996 117.276 65.2054C116.954 64.9333 116.651 64.5551 116.368 64.0708C116.001 63.4349 115.795 62.7778 115.75 62.0995C115.685 61.1187 116.013 60.2166 116.734 59.3933C117.533 58.4809 118.527 57.9853 119.717 57.9065C120.405 57.8608 121.037 57.9814 121.611 58.2682C121.969 58.4541 122.365 58.8156 122.799 59.3528C122.983 59.5922 123.087 59.8211 123.112 60.0395C123.14 60.2997 123.036 60.6263 122.8 61.0192L122.816 61.0338C122.514 61.5255 122.18 61.7835 121.814 61.8077C121.689 61.816 121.515 61.8013 121.293 61.7636C120.953 61.7023 120.741 61.4229 120.656 60.9255C120.622 60.7286 120.464 60.6395 120.182 60.6582C120.036 60.6679 119.908 60.713 119.798 60.7937C119.697 61.01 119.653 61.2225 119.667 61.4312C119.691 61.786 119.877 62.0723 120.227 62.2901C121.517 63.0851 122.278 63.5796 122.511 63.7738C123.342 64.4628 123.811 65.2125 123.917 66.0229C123.941 66.2205 123.974 66.4855 124.017 66.818C124.127 68.1627 123.388 69.265 121.8 70.1249C121.203 70.4474 120.628 70.627 120.075 70.6637C119.991 70.6692 119.876 70.6664 119.728 70.6552L119.696 70.6416C117.671 70.4509 116.541 69.766 116.306 68.5868C116.246 68.3183 116.202 68.1325 116.174 68.0295C116.156 67.9155 116.149 67.8793 116.151 67.921C116.133 67.6393 116.2 67.3885 116.353 67.1688C116.506 66.949 116.687 66.8322 116.896 66.8184C116.99 66.8122 117.275 66.9191 117.75 67.1391C118.225 67.3486 118.551 67.4475 118.729 67.4358C118.802 67.4309 118.89 67.4146 118.993 67.3868L119.01 67.4015ZM31.4282 83.8763C31.4713 84.0516 31.4987 84.228 31.5105 84.4054C31.5478 84.9688 31.4621 85.4147 31.2533 85.743C30.931 86.2569 30.414 86.5217 29.7024 86.5374C29.0534 86.549 28.6003 86.2751 28.3431 85.7157L28.3141 85.2775C28.3051 85.1418 28.2457 85.0357 28.1358 84.9592L28.0429 84.981C27.4871 86.7157 27.2473 88.1569 27.3233 89.3048C27.3489 89.6908 27.3527 89.8268 27.3347 89.7127C27.3548 89.8581 27.4538 90.0088 27.6319 90.1647C28.0882 90.0925 28.3658 89.9326 28.4647 89.685C28.5072 89.5355 28.4408 89.4036 28.2656 89.2895C28.0972 89.2797 27.9908 89.2553 27.9463 89.2163C27.8281 89.1717 27.7599 89.0924 27.7419 88.9783C27.7037 88.7188 27.7633 88.4319 27.9206 88.1176L28.2912 87.7786C28.3955 87.7717 28.6658 87.738 29.102 87.6777C29.5479 87.6062 29.8439 87.5656 29.99 87.5559C30.5952 87.5158 31.0591 87.6371 31.3818 87.9196C31.5994 88.1986 31.7245 88.5834 31.757 89.0738C31.795 89.6477 31.7193 90.2449 31.5299 90.8653C31.3237 91.5497 31.0063 92.1367 30.5776 92.6262C30.0904 93.1825 29.5313 93.5235 28.9004 93.6492C28.5797 93.7124 28.2993 93.7519 28.0593 93.7678C27.1411 93.8287 26.3022 93.5856 25.5428 93.0385C25.0143 92.6543 24.5815 92.0542 24.2445 91.2381C23.9074 90.422 23.7039 89.487 23.6341 88.4331C23.5393 87.0035 23.687 85.6732 24.077 84.4421C24.4671 83.211 25.0413 82.3083 25.7997 81.734C26.3237 81.4163 26.9248 81.235 27.603 81.1901C28.1978 81.1506 28.7536 81.2343 29.2703 81.4411C30.5465 82.195 31.2554 83.0074 31.3969 83.8784L31.4282 83.8763ZM42.2234 82.0604L42.2088 82.0771C42.8186 82.8961 43.1532 83.7543 43.2126 84.6517C43.277 85.6221 43.0189 86.551 42.4384 87.4384C41.9532 88.1832 40.8174 88.7563 39.0309 89.1577C39.0232 89.3573 39.0651 89.6742 39.1568 90.1083C39.2714 90.5723 39.3307 90.8356 39.3349 90.8982C39.3598 91.2739 39.2824 91.6877 39.1028 92.1398C39.0129 92.3659 38.8059 92.563 38.4817 92.7312C38.1679 92.8987 37.8075 92.996 37.4006 93.023C36.7954 93.0631 36.2994 92.9335 35.9128 92.6342C35.5359 92.3238 35.3124 91.8775 35.2424 91.2952C34.9346 90.2885 34.7486 89.2214 34.6843 88.0938L34.4624 84.7442C34.4561 84.6503 34.4514 84.2629 34.4482 83.5818C34.4491 82.9634 34.5193 82.44 34.6585 82.0116C34.8417 81.4544 35.1333 81.1102 35.5333 80.9789C36.4566 80.6767 37.299 80.5003 38.0608 80.4498C39.9077 80.3274 41.29 80.8646 42.2078 82.0615L42.2234 82.0604ZM39.3904 85.0936C39.499 84.8349 39.5457 84.5907 39.5305 84.3612C39.4917 83.7768 39.0894 83.4786 38.3236 83.4665C38.3004 83.9082 38.2965 84.2438 38.3117 84.4734C38.3331 84.7969 38.3543 85.0365 38.3751 85.1924C38.4118 85.431 38.4611 85.7788 38.5228 86.2358C38.6112 86.1461 38.7233 86.0182 38.859 85.852C39.1123 85.5627 39.2839 85.3051 39.3737 85.079L39.3904 85.0936ZM54.9234 90.2424L54.9078 90.2434C54.7824 90.5662 54.5583 90.9007 54.2354 91.247C53.8137 91.6836 53.375 91.9433 52.9193 92.0259C52.0386 92.1786 51.071 91.3362 50.0164 89.4986C50.0657 89.7678 50.0969 90.0016 50.1101 90.1998C50.1529 90.8468 50.0303 91.3684 49.7422 91.7648C49.2843 92.1306 48.8154 92.3293 48.3354 92.3611C48.1267 92.375 47.9375 92.3665 47.7678 92.3359C47.1417 92.2202 46.7269 92.0485 46.5231 91.821C46.252 91.5245 46.0894 90.9694 46.0355 90.1555L45.994 89.5294C45.9606 89.5002 45.9091 88.5656 45.8396 86.7256C45.7646 84.645 45.7798 83.0562 45.8853 81.9592C45.9691 81.1676 46.4865 80.5936 47.4375 80.2371C47.8877 80.071 48.7813 79.8756 50.1183 79.6507C51.7183 79.5971 52.8492 80.0566 53.5111 81.0294C54.0268 82.0118 54.3075 82.9259 54.3531 83.7718C54.4001 84.6386 54.2133 85.3794 53.7929 85.9941C53.7261 86.0929 53.4471 86.3891 52.9558 86.8828C54.2192 88.0777 54.8793 89.103 54.936 89.9586C54.9402 90.0212 54.936 90.1158 54.9234 90.2424ZM49.9636 83.2453L49.9479 83.2463C49.8839 83.2296 49.8311 83.2226 49.7893 83.2254C49.7476 83.2281 49.5907 83.3119 49.3186 83.4767C49.2797 83.5212 49.2816 83.7883 49.3246 84.278C49.373 84.8512 49.4142 85.3935 49.4481 85.9048C49.8356 85.7429 50.1567 85.5277 50.4115 85.2593C50.6759 84.9797 50.7988 84.6991 50.7801 84.4174C50.7545 84.0313 50.4823 83.6406 49.9636 83.2453ZM66.7412 81.8504L66.7402 81.8347C66.9248 83.0382 67.0527 84.1773 67.1239 85.2521C67.3431 88.5599 66.9184 90.4536 65.8497 90.9331C65.6869 91.0068 65.4959 91.0509 65.2768 91.0654C65.016 91.0827 64.6734 91.053 64.2491 90.9763C63.708 90.7187 62.7987 89.0969 61.5213 86.1108C61.7624 86.9018 61.9089 87.6886 61.9608 88.4712C62.0181 89.3373 61.9386 90.0342 61.722 90.5621C61.6232 90.8097 61.4283 91.0323 61.1374 91.2297C60.8563 91.416 60.5791 91.5025 60.3057 91.4892C59.4341 91.4631 58.8096 90.9752 58.4323 90.0256C58.1807 89.3925 58.01 88.3976 57.9201 87.0411C57.7451 84.4012 57.7371 82.62 57.8961 81.6977C58.0181 81.0084 58.3619 80.4249 58.9277 79.9472C59.2554 79.674 59.6332 79.5232 60.061 79.4948C60.2906 79.4796 60.5226 79.5009 60.757 79.5587C61.3836 79.8421 62.0424 80.7679 62.7332 82.3361C63.0161 82.9671 63.2912 83.7192 63.5587 84.5923C63.4087 83.9105 63.2799 83.3112 63.1723 82.7943C62.9862 81.8844 62.879 81.2155 62.8507 80.7877C62.8168 80.2764 62.9244 79.8448 63.1736 79.4929C63.461 79.0861 63.8917 78.8636 64.4656 78.8256C65.4778 78.7585 66.1464 79.2802 66.4715 80.3905C66.5396 80.627 66.6295 81.1137 66.7412 81.8504ZM79.7952 90.2447C79.7192 90.8366 79.1872 91.2702 78.1993 91.5452C78.1068 91.5723 77.9979 91.59 77.8727 91.5983C77.2049 91.6426 76.5779 91.2754 75.9918 90.4968C75.612 90.6163 75.0342 90.6755 74.2586 90.6745C73.5247 90.6708 72.8212 90.4134 72.148 89.9026C71.4749 89.3917 71.0017 88.7366 70.7287 87.9373C70.4549 87.1274 70.2876 86.2634 70.2268 85.3452C70.0227 82.267 70.6921 80.0322 72.2349 78.6408C72.7532 78.3969 73.3097 78.2552 73.9045 78.2158C74.7393 78.1604 75.4748 78.3475 76.1112 78.7769C76.3859 78.9684 76.7906 79.3031 77.3253 79.7812C78.351 80.7089 78.9313 82.1115 79.0662 83.989C79.1229 84.8447 79.0783 85.9114 78.9325 87.1892C78.9338 87.2101 78.8959 87.3488 78.8186 87.6055C78.751 87.851 78.72 88.0155 78.7255 88.099C79.4341 88.8276 79.8053 89.4475 79.8392 89.9588C79.8433 90.0214 79.8391 90.116 79.8265 90.2426L79.7952 90.2447ZM75.2443 86.3332L74.6007 83.0273C74.5896 82.8604 74.4958 82.788 74.3191 82.8102C74.1047 83.0549 73.9752 83.3937 73.9305 83.8263C73.8851 84.2486 73.8752 84.6527 73.9008 85.0388C73.9264 85.4249 73.9534 85.7532 73.9818 86.0238C74.0068 86.2423 74.021 86.3776 74.0244 86.4297C74.0376 86.4708 74.0391 86.413 74.0287 86.2565C74.0439 86.4861 74.0751 86.7984 74.1222 87.1936C74.1445 87.2131 74.166 87.2221 74.1869 87.2207C74.2286 87.218 74.2791 87.1884 74.3382 87.1321C74.3634 86.7217 74.5072 86.4397 74.7695 86.286C74.7904 86.2846 74.8401 86.3233 74.9187 86.4019C74.9972 86.4805 75.0522 86.5188 75.0835 86.5168C75.1475 86.5335 75.1941 86.5251 75.2233 86.4918C75.2519 86.448 75.2588 86.3951 75.2443 86.3332ZM90.7848 79.0935L90.8005 79.0925C90.8422 79.247 90.8713 79.4494 90.8879 79.6998C90.9121 80.2222 90.8131 80.6271 90.5911 80.9143C90.5041 81.0248 90.0898 81.1781 89.3482 81.3739C88.6163 81.5587 88.2413 81.6726 88.2232 81.7157C88.21 81.8319 88.4022 82.9144 88.8 84.9631C88.8799 85.3771 88.9336 85.7927 88.9613 86.2101C89.0242 87.1597 88.9509 87.9506 88.7412 88.5828C88.4794 89.3757 88.0451 89.7818 87.4385 89.801C86.4556 89.8347 85.7517 89.5722 85.3269 89.0134C85.0057 88.5946 84.8084 87.9107 84.7351 86.9618C84.7406 87.0453 84.7252 86.4961 84.6888 85.3142L84.6342 83.3056C84.6345 82.6767 84.6663 82.1296 84.7298 81.6643C84.6686 81.6893 84.5754 81.706 84.4502 81.7143C84.0954 81.7378 83.7368 81.7039 83.3744 81.6126C82.8841 81.4879 82.5402 81.2802 82.3427 80.9893C82.0639 80.5781 81.9121 80.1847 81.8872 79.809C81.8457 79.1829 82.1579 78.6749 82.8237 78.2849C83.681 77.7774 84.7356 77.4822 85.9878 77.3992C86.6452 77.3557 87.338 77.3726 88.0663 77.4501C88.4189 77.5525 88.9535 77.711 89.6699 77.9255C90.2743 78.1894 90.6459 78.5787 90.7848 79.0935ZM100.659 86.4095L100.643 86.4106C100.588 87.3156 100.299 87.9321 99.7755 88.2602C99.0442 88.6126 98.2925 88.8144 97.5204 88.8656C95.3082 89.0122 94.123 87.8908 93.9646 85.5012C93.9238 84.8856 93.9034 84.5778 93.9034 84.5778C93.8958 84.463 93.8892 84.2852 93.8838 84.0446C93.8818 83.856 93.878 83.72 93.8725 83.6366C93.6806 81.5322 93.6576 79.8412 93.8035 78.5634C93.956 78.0187 94.1457 77.6394 94.3726 77.4252C94.6099 77.2103 94.9828 77.0651 95.4913 76.9895C95.6054 76.9714 95.7303 76.9579 95.8659 76.9489C96.3146 76.9192 96.6443 76.9917 96.855 77.1663C96.944 77.2443 97.1168 77.4791 97.3733 77.8709C97.5964 78.5478 97.7432 79.4184 97.8137 80.4828C97.8573 81.1401 97.8628 82.1721 97.8302 83.5786C97.8111 84.5546 97.8349 85.0718 97.9016 85.1303C98.285 84.9057 98.7689 84.7741 99.3532 84.7354C99.4993 84.7257 99.6047 84.7344 99.6693 84.7616C99.9789 84.8459 100.219 85.0658 100.389 85.4213C100.499 85.6551 100.59 85.9949 100.661 86.4408L100.659 86.4095ZM111.996 76.3044C112.411 76.5598 112.645 77.0945 112.699 77.9084C112.816 79.6614 112.143 82.5567 110.681 86.5942C110.327 87.5714 109.659 88.1712 108.678 88.3934C108.544 88.4232 108.43 88.4413 108.336 88.4475C107.814 88.4821 107.312 88.4106 106.828 88.233C106.345 88.0554 105.982 87.8017 105.74 87.4719C104.968 86.4226 104.344 85.1435 103.867 83.6345C103.455 82.3203 103.209 81.0684 103.13 79.8789C103.074 79.0232 103.095 78.3982 103.195 78.0038C103.32 77.5239 103.599 77.1491 104.032 76.8793C104.404 76.6451 104.768 76.5266 105.125 76.524C105.837 76.5187 106.352 76.7832 106.671 77.3176C106.943 77.7921 107.206 78.7546 107.459 80.2051L107.793 82.1481C107.826 81.3912 107.888 80.271 107.979 78.7872C108.068 77.2931 108.391 76.3913 108.947 76.082C109.311 75.8797 109.707 75.7644 110.134 75.736C110.854 75.6883 111.475 75.8778 111.996 76.3044ZM116.171 75.7447L116.187 75.7436C116.439 75.5907 116.716 75.5042 117.019 75.4841C117.666 75.4413 118.147 75.6661 118.463 76.1588C118.709 76.394 118.958 76.8386 119.211 77.4926C119.541 78.3511 119.729 78.8155 119.775 78.8858C120.104 76.8936 120.557 75.5746 121.132 74.9285C121.417 74.7944 121.721 74.7166 122.044 74.6952C122.535 74.6627 122.935 74.7672 123.244 75.0087C123.821 75.3372 124.138 75.9189 124.193 76.7537C124.156 77.626 123.952 78.5775 123.58 79.6083C123.358 80.2099 122.977 81.0998 122.437 82.278C122.466 82.7267 122.505 83.3896 122.553 84.2668C122.583 85.0404 122.506 85.69 122.32 86.2159C122.09 86.8495 121.664 87.2969 121.042 87.5583C120.876 87.5902 120.757 87.6086 120.684 87.6134C119.849 87.6687 119.248 87.3784 118.881 86.7425C118.707 86.3348 118.598 85.7918 118.553 85.1136C118.532 84.7901 118.517 84.4871 118.509 84.2047C118.494 83.8284 118.475 83.5466 118.453 83.3595C116.548 80.5512 115.554 78.5314 115.473 77.3002C115.424 76.5697 115.657 76.0512 116.171 75.7447ZM37.9914 110.053C37.9154 110.644 37.3834 111.078 36.3955 111.353C36.303 111.38 36.1941 111.398 36.0689 111.406C35.4011 111.45 34.7741 111.083 34.188 110.305C33.8082 110.424 33.2304 110.483 32.4548 110.482C31.7209 110.479 31.0174 110.221 30.3442 109.71C29.6711 109.2 29.1979 108.544 28.9249 107.745C28.6511 106.935 28.4838 106.071 28.4229 105.153C28.2189 102.075 28.8883 99.84 30.431 98.4487C30.9494 98.2047 31.5059 98.063 32.1007 98.0236C32.9355 97.9683 33.671 98.1553 34.3074 98.5848C34.5821 98.7762 34.9868 99.1109 35.5215 99.589C36.5472 100.517 37.1275 101.919 37.2624 103.797C37.3191 104.652 37.2745 105.719 37.1287 106.997C37.13 107.018 37.0921 107.157 37.0148 107.413C36.9472 107.659 36.9162 107.823 36.9217 107.907C37.6303 108.635 38.0015 109.255 38.0354 109.767C38.0395 109.829 38.0353 109.924 38.0227 110.05L37.9914 110.053ZM33.4404 106.141L32.7969 102.835C32.7858 102.668 32.6919 102.596 32.5152 102.618C32.3009 102.863 32.1714 103.201 32.1267 103.634C32.0813 104.056 32.0714 104.461 32.097 104.847C32.1226 105.233 32.1496 105.561 32.178 105.832C32.203 106.05 32.2172 106.185 32.2206 106.238C32.2338 106.279 32.2352 106.221 32.2249 106.064C32.2401 106.294 32.2713 106.606 32.3184 107.001C32.3407 107.021 32.3622 107.03 32.3831 107.029C32.4248 107.026 32.4753 106.996 32.5344 106.94C32.5596 106.53 32.7034 106.247 32.9657 106.094C32.9866 106.092 33.0363 106.131 33.1149 106.21C33.1934 106.288 33.2484 106.327 33.2797 106.325C33.3437 106.341 33.3903 106.333 33.4195 106.3C33.4481 106.256 33.455 106.203 33.4404 106.141ZM49.232 105.535C49.2135 106.678 48.8378 107.573 48.1051 108.219C47.7189 108.559 47.0064 108.957 45.9677 109.414C45.5036 109.528 45.0212 109.602 44.5203 109.636C43.0491 109.733 41.9695 109.495 41.2818 108.923C41.1121 108.735 40.9291 107.159 40.7327 104.196C40.4996 100.679 40.4552 98.7433 40.5993 98.3879C41.2883 97.7134 42.3684 97.3274 43.8396 97.2299C44.2675 97.2015 44.5923 97.201 44.8142 97.2282C45.9765 97.3712 46.8602 97.7371 47.4652 98.3259C48.0694 98.9042 48.419 99.6723 48.5139 100.63C48.4678 101.199 48.2687 101.674 47.9165 102.053C47.76 102.221 47.4201 102.469 46.8968 102.797C47.5834 102.877 48.1436 103.186 48.5774 103.723C49.0217 104.259 49.2399 104.863 49.232 105.535ZM44.8985 100.398L44.8839 100.415C44.8138 100.147 44.5752 100.027 44.1683 100.054C44.0326 100.063 43.955 100.078 43.9356 100.1C43.8632 100.116 43.7999 100.188 43.7456 100.317C43.8594 100.928 43.9103 101.617 43.8982 102.382L44.5578 101.898C44.8349 101.335 44.9641 100.913 44.9454 100.631C44.9419 100.579 44.9263 100.501 44.8985 100.398ZM44.9528 105.724L44.9538 105.74C45.011 105.495 45.034 105.289 45.0229 105.122C44.9911 104.642 44.8135 104.413 44.49 104.434C44.3126 104.446 44.145 104.525 43.987 104.672C44.0064 104.807 44.0074 105.058 43.9898 105.426C43.9563 105.869 43.9426 106.137 43.9488 106.231C43.953 106.293 43.9741 106.454 44.0123 106.714C44.3226 106.651 44.5546 106.515 44.7084 106.306C44.7752 106.207 44.8567 106.013 44.9528 105.724ZM52.3439 97.6409L52.3283 97.642C52.757 97.1524 53.3209 96.8845 54.02 96.8382C54.6043 96.7994 55.0373 96.8493 55.319 96.9879C55.6417 97.2704 55.8349 97.7345 55.8986 98.38C55.8699 98.8955 55.8682 99.5821 55.8937 100.44C56.0493 100.891 56.2523 101.108 56.5028 101.091C56.5967 101.085 56.7396 101.028 56.9317 100.921C57.043 100.861 57.1175 100.642 57.1552 100.262C57.0567 99.7234 56.9655 98.9801 56.8817 98.0319C56.8875 97.4865 57.2007 96.9942 57.8213 96.5548C57.9417 96.4734 58.2464 96.4061 58.7355 96.3527C59.1 96.3181 59.3459 96.3122 59.4732 96.3353C59.9511 96.4294 60.2876 96.7634 60.4828 97.3373C60.5468 97.5113 60.6159 97.6849 60.6903 97.8581C60.807 98.1962 60.8824 98.5423 60.9163 98.8964C61.0757 100.353 61.1797 101.447 61.2281 102.177C61.3304 103.721 61.1771 105.44 60.768 107.333C60.6391 107.917 60.2041 108.313 59.4632 108.519C58.9901 108.656 58.601 108.634 58.2956 108.455C57.8818 108.221 57.6236 107.803 57.5209 107.202C57.4889 107.036 57.4744 106.739 57.4774 106.309C57.4908 105.878 57.4867 105.58 57.4652 105.413C57.3853 105.157 57.2097 105.037 56.9384 105.055C56.6776 105.073 56.4493 105.187 56.2538 105.399C56.0687 105.611 55.9917 105.873 56.0229 106.185C56.0889 106.39 56.1865 106.756 56.3157 107.282C56.3913 107.633 56.3937 107.905 56.3226 108.099C56.2161 108.389 56.0261 108.606 55.7527 108.75C55.5704 108.846 55.2288 108.91 54.7279 108.943C54.248 108.975 53.8404 108.834 53.5052 108.521C53.2257 108.257 52.9758 107.807 52.7555 107.172C52.4991 106.466 52.3314 105.675 52.2524 104.8C52.1375 103.539 52.0502 102.46 51.9908 101.563C51.8587 99.5701 51.9764 98.2627 52.3439 97.6409ZM71.5871 101.663L71.5714 101.665C71.6324 102.426 71.5965 103.465 71.4638 104.784C71.3486 105.892 71.2715 106.469 71.2325 106.513C71.135 106.939 70.8701 107.292 70.438 107.572C70.0463 107.829 69.5948 107.974 69.0835 108.008C68.5513 108.043 68.102 107.905 67.7355 107.594C67.0353 106.991 66.6571 106.266 66.6011 105.421C66.5894 105.244 66.6032 104.661 66.6425 103.673C66.6671 103.095 66.6934 102.543 66.7214 102.017C66.7628 101.218 66.8172 100.774 66.8847 100.686C66.8771 100.571 66.8166 100.528 66.7032 100.557L66.4058 100.576C65.9342 100.576 65.6098 100.346 65.4326 99.8862C65.3951 99.6371 65.3732 99.4657 65.367 99.3718C65.3041 98.4222 65.5548 97.6196 66.1192 96.9638C66.2556 96.808 66.5382 96.564 66.9668 96.2316C67.2862 95.9904 67.5165 95.8284 67.6577 95.7457C67.9305 95.5913 68.2181 95.5042 68.5208 95.4841C69.2512 95.4357 69.8774 95.7924 70.3996 96.5544C70.8292 97.1861 71.1343 97.9939 71.3148 98.9776C71.3821 99.3609 71.4732 100.261 71.5881 101.679L71.5871 101.663ZM83.2354 96.3796L83.2208 96.3963C83.8306 97.2153 84.1652 98.0735 84.2247 98.9709C84.289 99.9413 84.0309 100.87 83.4504 101.758C82.9652 102.502 81.8294 103.076 80.0429 103.477C80.0352 103.677 80.0771 103.993 80.1688 104.428C80.2834 104.892 80.3428 105.155 80.3469 105.217C80.3718 105.593 80.2944 106.007 80.1148 106.459C80.0249 106.685 79.8179 106.882 79.4937 107.05C79.1799 107.218 78.8195 107.315 78.4126 107.342C77.8074 107.382 77.3114 107.253 76.9248 106.953C76.5479 106.643 76.3244 106.197 76.2544 105.614C75.9466 104.608 75.7606 103.541 75.6964 102.413L75.4744 99.0635C75.4681 98.9696 75.4634 98.5821 75.4602 97.9011C75.4612 97.2827 75.5313 96.7592 75.6706 96.3308C75.8537 95.7737 76.1453 95.4294 76.5454 95.2981C77.4686 94.9959 78.311 94.8195 79.0728 94.769C80.9197 94.6466 82.302 95.1839 83.2198 96.3807L83.2354 96.3796ZM80.4024 99.4129C80.511 99.1541 80.5577 98.91 80.5425 98.6804C80.5038 98.0961 80.1015 97.7978 79.3356 97.7857C79.3125 98.2274 79.3085 98.5631 79.3237 98.7926C79.3451 99.1161 79.3663 99.3558 79.3871 99.5116C79.4239 99.7502 79.4731 100.098 79.5348 100.555C79.6232 100.465 79.7353 100.337 79.871 100.171C80.1243 99.8819 80.2959 99.6243 80.3857 99.3982L80.4024 99.4129ZM95.8773 95.6204L95.892 95.6037C95.9662 96.0914 96.0234 96.6378 96.0635 97.243C96.2219 99.6326 95.9876 101.87 95.3607 103.955C95.1977 104.5 94.9169 105.006 94.5181 105.473C94.1291 105.929 93.7095 106.239 93.2593 106.405C92.8357 106.496 92.4204 106.555 92.0134 106.582C90.8552 106.659 89.8668 106.452 89.0482 105.961C88.263 105.5 87.688 104.81 87.3232 103.89C87.0466 103.196 86.8668 102.223 86.7838 100.971C86.6593 99.0925 86.7382 97.5152 87.0204 96.2388C87.1096 95.8452 87.332 95.4846 87.6876 95.1571C88.0536 94.8289 88.4283 94.6311 88.8116 94.5638C89.1435 94.5104 89.478 94.5773 89.8153 94.7645C90.1624 94.9406 90.4249 95.1853 90.6028 95.4984C90.6507 95.7467 90.684 96.0118 90.7027 96.2935C90.7255 96.6378 90.6804 97.3797 90.5672 98.5191C90.4541 99.6585 90.4082 100.39 90.4297 100.713C90.4504 101.026 90.4896 101.302 90.5473 101.539C90.6216 101.712 90.8056 101.878 91.099 102.037C91.4462 102.056 91.6886 101.998 91.8264 101.863C92.0783 101.553 92.2197 101.155 92.2505 100.671C92.193 99.9624 92.1482 99.0484 92.1159 97.9291C92.1608 97.0248 92.192 96.4673 92.2094 96.2565C92.2535 95.6562 92.3225 95.1957 92.4166 94.8751C92.7521 94.245 93.1602 93.9192 93.6409 93.8979C94.0903 93.8786 94.5139 94.0234 94.9116 94.3324C95.3094 94.6414 95.6313 95.0708 95.8773 95.6204ZM110.916 103.129C110.952 103.671 110.871 104.101 110.671 104.418C110.51 104.67 110.291 104.842 110.014 104.933C109.871 104.985 109.66 105.051 109.383 105.132C109.167 105.199 109.028 105.235 108.965 105.239C108.516 105.268 108.122 105.095 107.783 104.72C107.443 104.333 107.253 103.843 107.214 103.248C107.199 103.019 107.221 102.483 107.28 101.64C107.331 100.987 107.303 100.475 107.194 100.105C107.153 100.265 107.022 100.751 106.804 101.562C106.515 102.587 106.237 103.219 105.97 103.456C105.822 103.592 105.638 103.667 105.419 103.682C105.252 103.693 105.076 103.647 104.891 103.544C104.289 102.997 103.776 101.894 103.351 100.234C103.316 100.499 103.308 100.766 103.326 101.038C103.336 101.194 103.411 101.687 103.55 102.516C103.652 103.107 103.683 103.582 103.644 103.941C103.591 104.405 103.394 104.827 103.052 105.206C102.701 105.439 102.358 105.567 102.024 105.589C101.565 105.619 101.129 105.444 100.716 105.062C100.24 104.36 99.957 103.892 99.868 103.656C99.6804 103.197 99.5554 102.498 99.4932 101.559C99.4358 100.693 99.4072 99.1542 99.4074 96.9428C99.4091 96.1776 99.5957 95.5155 99.9674 94.9563C100.349 94.3861 100.883 93.9786 101.569 93.734C102.954 93.6003 104.087 94.7252 104.968 97.1088C104.99 96.6567 105.113 96.0512 105.335 95.2923C105.659 94.1808 106.064 93.4885 106.549 93.2153C107.03 93.0367 107.442 92.936 107.787 92.9132C108.361 92.8752 108.811 93.0235 109.137 93.3582C109.557 93.6972 109.865 94.1484 110.06 94.7119C110.19 95.0911 110.298 95.7022 110.386 96.5454C110.447 97.3168 110.509 98.0883 110.57 98.8598C110.725 100.568 110.84 101.986 110.915 103.113L110.916 103.129ZM121.267 93.8591L121.252 93.8758C121.862 94.6948 122.197 95.553 122.256 96.4503C122.321 97.4208 122.062 98.3497 121.482 99.2371C120.997 99.9819 119.861 100.555 118.074 100.956C118.067 101.156 118.109 101.473 118.2 101.907C118.315 102.371 118.374 102.634 118.378 102.697C118.403 103.073 118.326 103.486 118.146 103.939C118.057 104.165 117.849 104.362 117.525 104.53C117.211 104.697 116.851 104.795 116.444 104.822C115.839 104.862 115.343 104.732 114.956 104.433C114.579 104.123 114.356 103.676 114.286 103.094C113.978 102.087 113.792 101.02 113.728 99.8924L113.506 96.5429C113.5 96.449 113.495 96.0616 113.492 95.3805C113.493 94.7621 113.563 94.2387 113.702 93.8103C113.885 93.2531 114.177 92.9089 114.577 92.7776C115.5 92.4754 116.343 92.299 117.104 92.2485C118.951 92.1261 120.334 92.6633 121.251 93.8602L121.267 93.8591ZM118.434 96.8923C118.543 96.6336 118.589 96.3894 118.574 96.1599C118.535 95.5755 118.133 95.2773 117.367 95.2652C117.344 95.7069 117.34 96.0425 117.355 96.2721C117.377 96.5956 117.398 96.8352 117.419 96.991C117.455 97.2297 117.505 97.5775 117.566 98.0345C117.655 97.9448 117.767 97.8169 117.903 97.6507C118.156 97.3614 118.327 97.1037 118.417 96.8777L118.434 96.8923Z" fill="#4F490F"/>
</g>
<defs>
<filter id="filter0_f_421_724" x="11.0909" y="94.6191" width="135.372" height="68.6172" filterUnits="userSpaceOnUse" color-interpolation-filters="sRGB">
<feFlood flood-opacity="0" result="BackgroundImageFix"/>
<feBlend mode="normal" in="SourceGraphic" in2="BackgroundImageFix" result="shape"/>
<feGaussianBlur stdDeviation="8.5" result="effect1_foregroundBlur_421_724"/>
</filter>
<filter id="filter1_f_421_724" x="13.9806" y="114.937" width="130.301" height="33.9658" filterUnits="userSpaceOnUse" color-interpolation-filters="sRGB">
<feFlood flood-opacity="0" result="BackgroundImageFix"/>
<feBlend mode="normal" in="SourceGraphic" in2="BackgroundImageFix" result="shape"/>
<feGaussianBlur stdDeviation="2" result="effect1_foregroundBlur_421_724"/>
</filter>
<filter id="filter2_f_421_724" x="0.181641" y="15.1143" width="145.873" height="128.074" filterUnits="userSpaceOnUse" color-interpolation-filters="sRGB">
<feFlood flood-opacity="0" result="BackgroundImageFix"/>
<feBlend mode="normal" in="SourceGraphic" in2="BackgroundImageFix" result="shape"/>
<feGaussianBlur stdDeviation="4" result="effect1_foregroundBlur_421_724"/>
</filter>
<linearGradient id="paint0_linear_421_724" x1="62.888" y1="126.893" x2="20.9741" y2="144.704" gradientUnits="userSpaceOnUse">
<stop/>
<stop offset="1" stop-color="#202020" stop-opacity="0.36"/>
</linearGradient>
<linearGradient id="paint1_linear_421_724" x1="67.0584" y1="8.3576" x2="78.8111" y2="147.886" gradientUnits="userSpaceOnUse">
<stop stop-opacity="0"/>
<stop offset="1"/>
</linearGradient>
<linearGradient id="paint2_linear_421_724" x1="31.1877" y1="-33.8629" x2="70.7255" y2="71.2525" gradientUnits="userSpaceOnUse">
<stop offset="0.247555" stop-color="#FBF4B5" stop-opacity="0.63"/>
<stop offset="0.459759" stop-color="#EBE0AA" stop-opacity="0.17"/>
<stop offset="0.629337" stop-color="#FFF8B7" stop-opacity="0.22"/>
<stop offset="0.78707" stop-color="#FFF8B7"/>
</linearGradient>
<radialGradient id="paint3_radial_421_724" cx="0" cy="0" r="1" gradientUnits="userSpaceOnUse" gradientTransform="translate(178.222 150.818) rotate(-160.39) scale(129.666 228.308)">
<stop stop-color="#FFFAC9"/>
<stop offset="1" stop-color="#FFF8B7" stop-opacity="0"/>
</radialGradient>
<radialGradient id="paint4_diamond_421_724" cx="0" cy="0" r="1" gradientUnits="userSpaceOnUse" gradientTransform="translate(130.086 6.68573) rotate(150.02) scale(33.989 34.7734)">
<stop offset="0.576895" stop-color="#F3E9B0" stop-opacity="0.34"/>
<stop offset="1" stop-color="#FFF8B7" stop-opacity="0"/>
</radialGradient>
<radialGradient id="paint5_diamond_421_724" cx="0" cy="0" r="1" gradientUnits="userSpaceOnUse" gradientTransform="translate(96.199 -5.60024) rotate(153.111) scale(36.9628 37.8158)">
<stop offset="0.576895" stop-color="#F3E9B0" stop-opacity="0.34"/>
<stop offset="1" stop-color="#FFF8B7" stop-opacity="0"/>
</radialGradient>
<clipPath id="clip0_421_724">
<rect width="114" height="110" fill="white" transform="translate(11.5115 17.0498) rotate(-3.79172)"/>
</clipPath>
</defs>
</svg>
